<?xml version="1.0" encoding="UTF-8"?><svg id="Layer_2" xmlns="http://www.w3.org/2000/svg" xmlns:xlink="http://www.w3.org/1999/xlink" viewBox="0 0 700.79 391.72"><defs><style>.cls-1{clip-path:url(#clippath);}.cls-2{fill:none;}.cls-2,.cls-3,.cls-4,.cls-5,.cls-6,.cls-7,.cls-8,.cls-9,.cls-10,.cls-11,.cls-12,.cls-13,.cls-14,.cls-15,.cls-16,.cls-17,.cls-18{stroke-width:0px;}.cls-19{clip-path:url(#clippath-1);}.cls-20{clip-path:url(#clippath-2);}.cls-3{fill:#fab499;}.cls-4{fill:#841849;}.cls-5{fill:#345863;}.cls-6{fill:#2a3e57;}.cls-7{fill:#643469;}.cls-8{fill:#59697c;}.cls-9{fill:#1b3a43;}.cls-10{fill:#0b2b34;}.cls-11{fill:#a8abab;}.cls-12{fill:#d8d9d9;}.cls-13{fill:#bb7362;}.cls-14{fill:#744036;}.cls-15{fill:#fff;}.cls-16{fill:#f69270;}.cls-17{fill:#e5e5e4;}.cls-18{fill:#001821;}</style><clipPath id="clippath"><rect class="cls-2" x="0" width="700.79" height="391.72"/></clipPath><clipPath id="clippath-1"><rect class="cls-2" x="0" width="700.79" height="391.72"/></clipPath><clipPath id="clippath-2"><rect class="cls-2" x="0" width="700.79" height="391.72"/></clipPath></defs><g id="Master_Line"><path class="cls-17" d="m266.67,294.76c3.15,4.5,9.27,3.01,12.11.26,2.84-2.75,4.04-6.72,5.13-10.52,2.5-8.67,5.01-17.76,3.16-26.59-.56-2.64-1.54-5.27-3.4-7.23-1.86-1.96-4.71-3.12-7.31-2.43-3.09.81-5,3.84-6.39,6.71-4.07,8.45-6.23,17.82-6.26,27.2-.02,4.38.5,8.98,2.97,12.59"/><g class="cls-1"><path class="cls-10" d="m699.08,390.89c0,.14-151.29.26-337.88.26s-337.91-.12-337.91-.26,151.26-.26,337.91-.26,337.88.12,337.88.26"/><path class="cls-15" d="m630.67,180.66l2.6-11.1c-3.58-5.49-5.74-12-5.92-19.03-.53-20.22,15.44-37.04,35.66-37.56,20.22-.53,37.04,15.44,37.56,35.66.53,20.22-15.44,37.04-35.66,37.56-8.44.22-16.29-2.44-22.61-7.08v.02s-11.64,1.54-11.64,1.54h0Z"/><path class="cls-10" d="m630.67,180.66s.24-.02.74-.08c.51-.06,1.25-.15,2.22-.27,1.99-.25,4.91-.62,8.71-1.09l.16-.02-.1-.13v-.02s-.14.13-.14.13c3.78,2.79,9.39,5.8,16.67,6.82,1.81.26,3.71.38,5.68.35,1.96-.13,4.01-.19,6.07-.64,4.13-.75,8.41-2.28,12.43-4.72,4.01-2.44,7.75-5.8,10.74-9.96,2.99-4.15,5.23-9.12,6.28-14.51,1.08-5.39.84-11.19-.7-16.77-1.54-5.57-4.42-10.95-8.6-15.31-.53-.55-1.04-1.1-1.58-1.63-.57-.49-1.14-.99-1.71-1.48l-.85-.74-.91-.65c-.61-.43-1.22-.86-1.83-1.29-.62-.41-1.28-.75-1.92-1.13-.65-.35-1.27-.77-1.95-1.04-1.35-.59-2.66-1.26-4.06-1.67-5.51-1.9-11.31-2.44-16.79-1.75-5.48.73-10.59,2.68-14.93,5.44-4.35,2.76-7.92,6.32-10.6,10.2-2.68,3.88-4.46,8.08-5.45,12.18-.55,2.04-.75,4.08-.97,6.04-.03,1.97-.15,3.88.04,5.7.62,7.33,3.3,13.1,5.87,17v-.07c-.83,3.62-1.47,6.41-1.9,8.3-.21.92-.36,1.63-.47,2.12-.1.47-.15.7-.15.7,0,0,.07-.25.19-.73.12-.49.29-1.2.52-2.13.45-1.88,1.12-4.63,1.98-8.21v-.04s-.01-.03-.01-.03c-2.53-3.9-5.15-9.64-5.74-16.92-.18-1.81-.06-3.7-.02-5.66.23-1.94.43-3.96.98-5.99,1-4.05,2.76-8.21,5.43-12.04,2.65-3.83,6.2-7.35,10.51-10.07,4.3-2.73,9.35-4.65,14.77-5.36,5.42-.67,11.15-.14,16.59,1.75,1.39.4,2.68,1.07,4.01,1.65.68.27,1.29.68,1.93,1.03.63.37,1.28.71,1.9,1.11.6.42,1.2.85,1.8,1.28l.9.64.84.73c.56.48,1.13.97,1.69,1.46.53.53,1.04,1.08,1.56,1.61,4.13,4.31,6.97,9.63,8.5,15.13,1.52,5.51,1.77,11.25.7,16.57-1.03,5.33-3.23,10.24-6.19,14.35-2.95,4.12-6.64,7.46-10.61,9.88-3.97,2.43-8.2,3.95-12.29,4.71-2.04.45-4.07.52-6.02.65-1.95.04-3.84-.07-5.64-.32-7.23-.98-12.81-3.94-16.6-6.68l-.56-.4.43.54v.02s.07-.15.07-.15c-3.77.52-6.66.93-8.63,1.2-.98.14-1.72.24-2.24.32-.5.07-.77.12-.77.12h0Z"/></g><path class="cls-4" d="m679.47,145.74c-.25-1.9-1.2-3.68-2.49-5.09-1.27-1.38-2.92-2.47-4.77-2.84-1.96-.4-4.07.05-5.7,1.2-.97.69-1.76,1.62-2.3,2.67-.56-.92-1.31-1.73-2.21-2.33-1.66-1.11-3.79-1.49-5.73-1.04-1.83.43-3.45,1.55-4.68,2.97-1.26,1.45-2.16,3.25-2.35,5.16-.24,2.39.26,5,1.53,7.04,1.34,2.16,3.48,3.88,5.67,5.16,3.69,2.15,8.54,4.84,8.54,4.84,0,0,4.02-3.1,7.65-5.36,2.16-1.34,4.24-3.13,5.52-5.32,1.21-2.08,1.63-4.7,1.33-7.08h0Z"/><path class="cls-15" d="m312.19,122.58l-3.26-10.91c3.56-5.78,5.62-12.58,5.62-19.86,0-20.94-16.98-37.92-37.92-37.92s-37.92,16.98-37.92,37.92,16.98,37.92,37.92,37.92c8.75,0,16.79-2.97,23.21-7.94v.02s12.36.77,12.36.77h0Z"/><path class="cls-10" d="m312.19,122.58s-.25,0-.78-.03c-.54-.03-1.33-.07-2.35-.12-2.11-.12-5.22-.29-9.25-.51h-.21s.13-.18.13-.18v-.02s.17.16.17.16c-3.85,3-9.58,6.26-17.08,7.52-1.86.32-3.83.49-5.87.51-2.03-.08-4.15-.08-6.29-.49-4.29-.66-8.76-2.12-12.97-4.53-4.21-2.4-8.17-5.76-11.38-9.97-3.21-4.2-5.67-9.25-6.92-14.78-1.28-5.52-1.25-11.52.16-17.32,1.43-5.78,4.17-11.46,8.34-16.1,4.17-4.74,9.39-8.43,15.09-10.53,5.67-2.16,11.7-2.9,17.42-2.35,5.73.57,11.1,2.46,15.7,5.21,4.6,2.75,8.42,6.35,11.3,10.31,2.89,3.96,4.85,8.28,5.98,12.5.62,2.11.88,4.22,1.16,6.25.09,2.05.26,4.02.11,5.91-.46,7.61-3.08,13.64-5.62,17.72v-.09c1.04,3.56,1.84,6.3,2.38,8.17.26.9.46,1.6.6,2.08.13.47.19.69.19.69,0,0-.09-.25-.24-.72-.15-.49-.37-1.18-.65-2.1-.57-1.85-1.4-4.55-2.48-8.06v-.05s.01-.04.01-.04c2.49-4.08,5.06-10.07,5.47-17.62.14-1.88-.03-3.83-.13-5.86-.28-2.01-.55-4.1-1.17-6.18-1.14-4.18-3.09-8.44-5.96-12.35-2.86-3.91-6.64-7.46-11.19-10.16-4.54-2.7-9.85-4.57-15.5-5.12-5.65-.53-11.59.2-17.19,2.34-5.62,2.08-10.77,5.72-14.88,10.4-8.18,9.24-10.95,22.09-8.41,32.97,1.23,5.46,3.64,10.45,6.81,14.61,3.16,4.16,7.06,7.49,11.22,9.88,4.16,2.4,8.57,3.85,12.81,4.52,2.12.41,4.21.42,6.23.51,2.02-.01,3.97-.18,5.82-.48,7.44-1.21,13.14-4.4,17-7.36l.69-.53-.53.69v.02s-.09-.18-.09-.18c4,.28,7.07.49,9.16.64,1.04.08,1.83.13,2.38.17.54.04.82.07.82.07h0Z"/><path class="cls-10" d="m268.84,91.81c0,2.59-2.1,4.68-4.68,4.68s-4.68-2.1-4.68-4.68,2.1-4.68,4.68-4.68,4.68,2.1,4.68,4.68h0Z"/><path class="cls-10" d="m282.84,91.81c0,2.59-2.1,4.68-4.68,4.68s-4.68-2.1-4.68-4.68,2.1-4.68,4.68-4.68,4.68,2.1,4.68,4.68h0Z"/><path class="cls-10" d="m296.87,91.81c0,2.59-2.1,4.68-4.68,4.68s-4.69-2.1-4.69-4.68,2.1-4.68,4.69-4.68,4.68,2.1,4.68,4.68h0Z"/><path class="cls-15" d="m89.76,173.19l-3.63-10.74c3.27-5.55,5.1-12.05,4.97-18.97-.39-19.89-16.83-35.7-36.72-35.32-19.89.39-35.71,16.83-35.32,36.72.39,19.89,16.83,35.71,36.72,35.32,8.31-.16,15.9-3.13,21.9-7.97v.02s12.08.94,12.08.94h0Z"/><path class="cls-10" d="m89.76,173.19s-.24,0-.75-.03c-.55-.03-1.31-.08-2.29-.14-2.09-.14-5.13-.34-9.07-.61l-.15-.17.03-.08v-.02s.24.22.24.22c-3.63,2.96-9.05,6.19-16.19,7.51-3.55.69-7.49.8-11.6.23-4.1-.57-8.38-1.88-12.43-4.11-4.05-2.22-7.87-5.36-11-9.31-3.13-3.95-5.55-8.72-6.82-13.97-2.62-10.45-.2-22.9,7.56-31.95,3.88-4.57,8.77-8.16,14.15-10.26,5.35-2.15,11.06-2.97,16.5-2.56,5.45.42,10.6,2.12,15.02,4.64,4.43,2.52,8.13,5.86,10.95,9.57,5.67,7.46,7.74,16.14,7.41,23.33-.28,7.27-2.67,13.09-5.05,17.05v-.13c1.15,3.5,2.03,6.21,2.64,8.07.28.88.5,1.55.65,2.04.14.46.2.67.2.67,0,0-.1-.25-.27-.72-.18-.49-.42-1.18-.73-2.06-.64-1.83-1.57-4.48-2.77-7.91v-.13c2.32-3.97,4.63-9.74,4.85-16.91.28-7.11-1.81-15.64-7.41-22.95-2.79-3.63-6.44-6.91-10.8-9.37-4.35-2.46-9.4-4.11-14.75-4.52-5.34-.39-10.94.41-16.18,2.53-5.26,2.06-10.06,5.58-13.86,10.06-7.6,8.87-9.99,21.07-7.44,31.32,1.25,5.15,3.61,9.84,6.67,13.72,3.06,3.89,6.8,6.99,10.77,9.19,3.98,2.21,8.18,3.52,12.22,4.1,4.04.58,7.93.51,11.44-.15,7.05-1.26,12.44-4.39,16.08-7.28l.22.02v.19s0,.02,0,.02l-.11-.25c3.89.35,6.88.61,8.94.79,1,.09,1.77.17,2.33.22.53.05.81.09.81.09h0Z"/><path class="cls-10" d="m44.84,136.85h5.48s0-4.6,4.78-4.68c2.48-.04,3.77,1.58,4.29,2.83.61,1.45.42,3.1-.39,4.44-.93,1.53-2.97,2.93-6.66,2.28v12.35h5.42v-7.24s7.6-1.96,7.6-10.34-7.19-9.87-10.26-9.87c-2.35,0-10.37.57-10.26,10.24h0Z"/><polygon class="cls-10" points="57.83 161.75 52.33 161.75 52.33 156.61 57.83 156.61 57.83 161.75 57.83 161.75"/><path class="cls-3" d="m621.94,344.85s5.98-1.98,8.8-5.1c2.82-3.11,6.04-6.99,6.04-6.99l-25.2-15.24-3.16,8.12,6.17,13.72,7.36,5.48h0Z"/><path class="cls-3" d="m626.84,232.47s16.86,50.32,21.03,70.93c3.55,17.6-2.84,28.89-12.82,29.95-9.98,1.06-16.85-3.82-19.55-6.87-2.93-3.31-6.58-12.52-6.58-12.52l-23.35-86.4s5.52,3.69,11.1,7.49c8.43,5.74,15.29,28.41,15.29,28.41l-7.65-27.38,22.53-3.6h0Z"/><path class="cls-16" d="m611.57,261s.09.21.2.61c.12.46.28,1.04.47,1.76.44,1.59,1.04,3.79,1.78,6.48.73,2.74,1.63,6.01,2.25,9.73.32,1.85.49,3.85.5,5.89.04,2.04.07,4.15.14,6.31.13,4.32.6,8.42,1.48,12.05.87,3.63,2.24,6.74,3.75,9.11,1.5,2.39,3.1,4.05,4.3,5.07,1.21,1.02,1.96,1.48,1.93,1.52,0,.02-.2-.09-.56-.31-.36-.21-.87-.57-1.5-1.06-1.25-.99-2.92-2.63-4.48-5.03-1.57-2.39-2.99-5.53-3.9-9.2-.91-3.66-1.4-7.8-1.53-12.14-.08-2.17-.1-4.28-.14-6.32,0-2.05-.16-3.98-.46-5.83-.59-3.69-1.45-6.96-2.14-9.71-.7-2.75-1.27-4.97-1.62-6.52-.18-.77-.3-1.38-.38-1.79-.08-.41-.11-.63-.09-.63h0Z"/><path class="cls-16" d="m612.62,320.61c.1-.04.65,1.55,2.07,3.8,1.4,2.24,4.11,4.89,7.67,6.8,3.63,1.82,7.42,2.06,10.06,2.05,2.67-.04,4.32-.29,4.33-.2,0,.03-.4.13-1.14.25-.74.11-1.83.25-3.18.32-2.67.1-6.55-.07-10.31-1.95-3.67-1.96-6.39-4.71-7.75-7.07-.69-1.17-1.13-2.17-1.4-2.88-.27-.7-.39-1.1-.36-1.12h0Z"/><path class="cls-3" d="m626.81,233.92l-20.97,4s.24-1.14-1.39-1.62c-1.63-.48-3.15-1.91-5.92-3.91-2.76-2-5.72-5.34-5.72-5.34,0,0-10.29-4-11.25-5.91-.95-1.91-2.86-5.34,1.91-5.43,4.77-.1,9.53.48,9.53.48l6.48-9.53,11.44-12.87,3.53,1.62s9.42,15.44,9.52,15.82c.1.38,2.84,22.69,2.84,22.69h0Z"/><path class="cls-10" d="m608.79,189.06c0,1.44,7.22,27.88,7.03,29.45-.19,1.58-21.84,10.42-24.88,9.63-3.04-.79-5.81-14.66-5.81-14.66,0,0-8.46-30.9-8.06-32.22.4-1.32,22.58-15.18,24.56-13.86,1.98,1.32,7.15,21.66,7.15,21.66h0Z"/><path class="cls-5" d="m602.05,175.78l10.07,39.32c.1.44-.12.89-.54,1.06-3.73,1.56-20.66,8.6-21.07,8.01-.46-.66-3.01-8.4-3.01-8.4l-6.76-24.09c-.18-.46.04-.99.5-1.18l20.8-14.72h0Z"/><path class="cls-3" d="m626.81,233.92s.7-9.72,1.37-16.11c.67-6.39-.48-8.7-1.43-10.87-1-2.27-5.15-4.54-5.82-4.58,0,0-.33-2.6-1.49-5.13-.87-1.89-3.15-2.74-3.15-2.74,0,0-.03-2.58-.98-4.21-.24-.4-.75-.73-1.37-.98-2.66-1.08-5.14-.19-7.14,1.87-1.48,1.52-2.09,3.05-2.16,4.13-.17,2.44,1.58,3.59,4.06,1.78,1.82-1.33,1.18-.7,1.18-.7,0,0,4.02-1.94,2.77-.32-1.3,1.67-4.4,6.6-4.77,8.77-.39,2.29.19,3.53,1.91,3.62,1.72.09,5.81-5.14,5.81-5.14,0,0-4.84,7.53-4.48,9.38.28,1.45,2.35,2.07,3.64,1,1.16-.96,5.11-4.96,5.11-4.96,0,0-1.1,17.16,1.18,18.68,2.29,1.52,5.78,6.48,5.78,6.48h0Z"/><path class="cls-16" d="m612.18,209.3c-.06-.03.21-.69.72-1.71.26-.51.57-1.12.94-1.78.37-.68.87-1.35,1.41-2.05.56-.73,1.31-1.23,2.05-1.52.75-.28,1.49-.3,2.07-.24,1.16.14,1.82.41,1.81.46-.01.09-.72-.05-1.83-.09-.55,0-1.21.05-1.87.32-.65.28-1.32.74-1.82,1.4-.51.68-1.02,1.34-1.4,1.97-.36.59-.7,1.16-1.03,1.71-.59.97-.98,1.57-1.04,1.53h0Z"/><path class="cls-16" d="m608.79,202.51c-.06-.03.25-.76.81-1.9.32-.63.65-1.29,1-1.99.2-.38.4-.77.61-1.17.11-.2.22-.41.33-.62.13-.23.27-.44.44-.63.66-.78,1.47-1.33,2.29-1.65.82-.33,1.7-.32,2.32-.07,1.26.5,1.7,1.25,1.66,1.27-.06.08-.6-.56-1.77-.92-1.15-.41-2.91.3-4.11,1.71-.15.17-.27.36-.38.54-.11.21-.22.41-.33.61-.22.39-.43.78-.64,1.15-.39.68-.75,1.33-1.1,1.94-.64,1.1-1.07,1.76-1.13,1.72h0Z"/><path class="cls-16" d="m612.38,214.1s.23.11.65.1c.43-.01,1.03-.24,1.71-.67,1.36-.87,3.07-2.49,4.84-4.58l.31-.36.1.46c.49,2.16-.36,4.59-1.62,6.72-1.14,1.95-2.38,3.69-2.99,5.5-.62,1.8-.63,3.56-.55,5.01.24,2.9.67,4.69.56,4.71-.03,0-.16-.43-.35-1.23-.18-.8-.44-1.97-.58-3.45-.13-1.47-.17-3.29.46-5.19.61-1.91,1.87-3.69,2.99-5.61,1.24-2.09,2.03-4.38,1.61-6.36l.41.1c-1.84,2.1-3.6,3.69-5.06,4.52-.72.42-1.39.61-1.86.58-.23-.02-.41-.08-.51-.14-.1-.06-.15-.1-.14-.11h0Z"/><path class="cls-16" d="m617.1,200.59c.09.08-.78,1.49-1.96,3.19-.58.84-1.17,1.6-1.63,2.09-.45.49-.67.83-.74.8-.07-.03.06-.46.45-1.03.55-.79,1.01-1.46,1.5-2.16,1.17-1.69,2.25-2.99,2.38-2.89h0Z"/><path class="cls-7" d="m587.82,227.56c1.88,1.5,13.73,23.92,19.75,34.44,6.02,10.53,10.92,26.08,9.33,41.74-1.1,10.86-7.31,22.45-7.31,22.45l.24,18.54,15.74,45.47h-109.84l12.25-38.16c1.09,0-2.91-20.86-6.38-32.51-8.07-27.1-14.21-57.52-12.15-76.03,1.85-16.56,19.63-24.29,29.45-27.65,3.03-1.03,1.91-1.29,4.16-1.73,13.64-2.67,44.76,13.44,44.76,13.44"/><path class="cls-10" d="m587.96,325.95c-.05-.08,1.43-1.04,3.57-2.88,1.08-.92,2.29-2.09,3.55-3.46,1.24-1.39,2.53-2.99,3.74-4.78,1.19-1.8,2.17-3.6,2.98-5.28.78-1.69,1.4-3.26,1.84-4.61.88-2.69,1.2-4.42,1.29-4.4.04,0-.02.44-.16,1.23-.12.79-.38,1.91-.78,3.28-.39,1.37-.98,2.97-1.75,4.7-.79,1.71-1.78,3.55-2.98,5.37-1.22,1.81-2.54,3.42-3.82,4.81-1.3,1.37-2.55,2.53-3.67,3.42-1.11.89-2.05,1.57-2.73,1.98-.67.43-1.06.64-1.08.61h0Z"/><path class="cls-9" d="m574.86,360.26c-4.27,0-8.47-.54-12.12-1.98-15.17-5.97-36.14-57.74-36.14-57.74l24.28-9.87,51.61,64.16s-14.17,5.43-27.63,5.43"/><path class="cls-3" d="m557.24,251.09c10.16,18.5,35.66,71.96,35.66,71.96l16.69,3.15,13,18.66s-20.95,14.29-39.64,13.39c-18.69-.9-26.61-19.68-35.71-32.45-8.51-11.94-26.38-45.51-26.38-45.51l36.39-29.19h0Z"/><path class="cls-10" d="m546.35,83.63c-2.09-2.4-5.35-3.73-8.52-3.47-1.29.11-2.71.43-3.79-.28-.77-.51-1.15-1.42-1.72-2.16-1.72-2.26-5.5-2.53-7.52-.53-.5.49-.91,1.1-1.55,1.4-2.56,1.2-5.12-3.61-7.66-2.38,1.07.54,2.12,1.25,2.69,2.31.57,1.06.49,2.54-.45,3.29-2.43,1.95-6.07-2.81-8.75-1.22-1.44.86-1.74,3.24-3.39,3.56-.64.12-1.28-.13-1.92-.22-2.16-.33-4.42,1.34-4.74,3.5-.27,1.85.57,4.15-.88,5.33-.9.73-2.2.55-3.33.33-.05,1.7.29,3.42,1,4.97-3.1,1.6-4.39,5.95-2.66,8.98-1.52,1.09-3.07,2.23-4.07,3.81-.99,1.59-1.3,3.74-.27,5.3.23.35.54.68.66,1.08.14.44.05.92-.06,1.36-.43,1.72-1.27,3.37-1.29,5.15-.03,1.77,1.21,3.78,2.98,3.7.41-.02.87-.14,1.21.1.25.18.35.51.39.82.18,1.26-.19,2.53-.42,3.79-.23,1.26-.29,2.64.41,3.71.7,1.07,2.42,1.5,3.26.54-.59,1.95-1.18,3.9-1.77,5.85-.35,1.16-.65,2.57.16,3.46,1.07,1.17,3.13.37,4.04-.93.91-1.3,1.21-2.96,2.15-4.24.38-.52.87-.98,1.14-1.57.21-.47.3-1.03.71-1.34.82-.62,2,.54,1.85,1.56-.15,1.02-1,1.76-1.68,2.54-.68.77-1.26,1.89-.77,2.8.24.44.68.74.9,1.18.77,1.54-1.49,2.9-1.83,4.59-.24,1.25.62,2.42,1.48,3.36,1.05,1.14,3.14,2.12,3.89.76.26-.47.2-1.06.4-1.56.24-.58.8-.96,1.28-1.36,1.21-1,2.11-2.36,2.56-3.86-1.38,1.56-2.85,3.63-2,5.54.35.79,1.06,1.37,1.63,2.02,1.13,1.28,1.79,2.91,2.91,4.21,1.11,1.29,2.99,2.23,4.52,1.46-.59,1.61.07,3.59,1.51,4.53,1.44.94,3.51.75,4.75-.44.34-.33.64-.73,1.09-.88.48-.17,1,0,1.5.1,2.97.68,6.28-.49,8.17-2.87-.5-.2-1-.4-1.5-.6,3.01-.26,6.15-.56,8.71-2.16,2.56-1.6,4.32-4.92,3.15-7.7-.51-1.21-1.53-2.46-.99-3.66.37-.82,1.33-1.17,2.2-1.43,3.61-1.1,7.23-2.2,10.84-3.29,1.75-.53,3.6-1.12,4.81-2.5,1.21-1.37,1.42-3.8-.06-4.88.89-1.61,2.26-2.96,3.87-3.84,1.82-.99,3.91-1.38,5.77-2.28,1.86-.9,3.6-2.61,3.56-4.68-.04-2.07-2.82-3.79-4.31-2.35.42-3.1,5.97-3.05,6.58-6.12.5-2.49-2.66-3.94-4.23-5.93.38-.86,1.29-1.38,1.69-2.22.84-1.77-.96-3.66-2.69-4.58-1.73-.92-3.85-1.87-4.2-3.8-.35-1.98,1.42-4.12.46-5.87-.54-.97-1.91-1.38-2.89-.85-1.27-3.65-8.14-1.24-9.96-4.65-.15-.27-.25-.58-.19-.88.05-.26.2-.49.37-.69.82-.95,2.05-1.42,3.07-2.15,1.02-.72,1.91-1.97,1.51-3.16-.4-1.19-2.62-1.25-2.65,0-1.22-1.19-3.61-.7-4.26.88-.82-1.09-2.52-1.15-3.71-.5-1.2.64-2.02,1.8-2.79,2.92"/><path class="cls-5" d="m527.63,122.5c1.46-5.07,5.52-8.98,9.92-11.89,1.84-1.22,3.85-2.33,6.05-2.53,2.2-.2,4.64.74,5.61,2.72l-.55,3.66c.07,5.88-4.77,10.49-7.29,15.8-1.09,2.31-2.05,5.11-4.46,5.96-1.26.45-2.68.22-3.92-.3-4.86-2.05-6.84-8.35-5.38-13.42h0Z"/><path class="cls-10" d="m525.29,149.49c-2.99-4.62-1.96-11.42,2.28-14.94-1.93-2.87-.81-6.97,1.59-9.46,2.4-2.49,5.77-3.75,9.02-4.94,2.36-7.75,11.68-12.57,19.37-10.03,4.58-5.68,13.37-5.91,20.19-3.3,1.66.64,3.32,1.42,5.09,1.56,1.3.1,2.61-.15,3.91-.22,7.18-.37,13.82,5.21,16.05,12.04.36,1.09.63,2.24,1.26,3.2.82,1.26,2.16,2.08,3.28,3.09,2.41,2.2,3.79,5.48,3.66,8.74-.11,2.77-1.23,5.62-.27,8.22.48,1.3,1.45,2.4,1.79,3.75,1,3.9-3.51,7.42-3.06,11.42.09.82.39,1.59.55,2.4.32,1.65.02,3.41-.83,4.86-.66,1.12-1.65,2.11-1.83,3.39-.14.97.22,1.94.34,2.92.29,2.39-5.52,11.03-7.66,12.14l-60.69-4.43c-4.51-1.31-7.91-5.78-7.97-10.48,0-.78.05-1.62-.38-2.28-.37-.56-1.01-.85-1.57-1.21-3.73-2.42-3.76-7.82-2.99-12.19.11-.61.22-1.24.12-1.85-.15-.89-.75-1.63-1.24-2.39h0Z"/><path class="cls-3" d="m542.56,151c.7-10.75,8.44-22.53,19.53-26.9,6.99-2.76,12.24-2.35,15.8-2.47,7.99-.27,14.06,4.17,14.06,4.17,3.28,1.06,14.61,13.28,14.24,25.5-.4,13.58-1.43,30.14-3.96,40.06-5.1,19.96-20.86,21.09-20.86,21.09l-.78,16.12.65,12.79-40.28-25.23,1.6-65.13h0Z"/><path class="cls-16" d="m572.24,185.52c.18-1.06.8-1.97,1.58-2.59,1.55-1.23,3.75-1.27,5.32-.1,1.57,1.17,2.4,3.48,2.02,5.59-.95,1.21-2.36,1.99-3.9,2.07-.24.01-.48.01-.72,0-1.16-.07-2.32-.51-3.18-1.4-.85-.89-1.35-2.26-1.13-3.56h0Z"/><path class="cls-10" d="m600.01,168.99c-.08,1.38-1.31,2.45-2.75,2.39-1.44-.06-2.54-1.21-2.46-2.59.08-1.38,1.31-2.45,2.74-2.39,1.44.05,2.54,1.22,2.46,2.59h0Z"/><path class="cls-10" d="m600.92,158.65c-.35.31-2.19-1.33-4.98-1.58-2.79-.29-4.97.96-5.25.58-.14-.17.25-.75,1.2-1.31.94-.57,2.5-1.06,4.24-.89,1.74.17,3.15.95,3.93,1.68.8.74,1.03,1.38.86,1.52h0Z"/><path class="cls-10" d="m582.52,179.21c0-.16,1.77-.3,4.61-.4.72,0,1.41-.09,1.58-.56.22-.5-.01-1.3-.28-2.16-.51-1.79-1.05-3.67-1.61-5.63-2.21-8.01-3.74-14.57-3.42-14.66.32-.09,2.38,6.34,4.59,14.35.53,1.97,1.03,3.85,1.51,5.65.19.84.57,1.8.11,2.84-.24.51-.8.85-1.27.93-.47.1-.87.07-1.23.06-2.85-.11-4.61-.26-4.6-.42h0Z"/><path class="cls-16" d="m581.38,212.46s-13.71-.39-26.45-9.75c0,0,5.82,15.22,26.26,15.2l.19-5.45h0Z"/><path class="cls-10" d="m574.11,180.38c.46.02.18,3.05,2.58,5.45,2.39,2.4,5.66,2.36,5.64,2.79.02.19-.78.52-2.14.43-1.34-.08-3.26-.69-4.72-2.16-1.46-1.47-1.98-3.29-1.97-4.55,0-1.28.41-2,.62-1.96h0Z"/><path class="cls-10" d="m600.76,148.07c-.53.64-2.63-.02-5.15-.04-2.52-.11-4.65.44-5.14-.22-.22-.32.12-.96,1.05-1.57.92-.6,2.45-1.1,4.18-1.06,1.73.05,3.23.62,4.11,1.27.89.65,1.19,1.31.95,1.62h0Z"/><path class="cls-10" d="m569.27,166.86c-.12,1.37.93,2.61,2.37,2.77,1.43.16,2.69-.83,2.82-2.2.12-1.37-.94-2.61-2.36-2.77-1.43-.16-2.69.83-2.82,2.2h0Z"/><path class="cls-10" d="m562.58,156.2c.3.36,2.36-.99,5.16-.83,2.8.12,4.78,1.68,5.1,1.35.16-.14-.14-.77-1-1.48-.85-.7-2.32-1.41-4.06-1.5-1.75-.09-3.25.48-4.13,1.09-.9.61-1.22,1.21-1.07,1.37h0Z"/><path class="cls-10" d="m562.66,146.76c.52.67,2.72.13,5.32.24,2.61.03,4.78.69,5.32.06.24-.31-.07-.97-1-1.62-.92-.65-2.47-1.23-4.26-1.28-1.79-.05-3.37.44-4.31,1.05-.96.6-1.29,1.24-1.07,1.57h0Z"/><path class="cls-3" d="m544.14,170.5c.14-1.51-1.28-5.23-2.74-5.6-3.92-.99-11.12-1.34-12.12,8.76-1.37,13.8,12.77,12.33,12.83,11.94.05-.31,1.57-9.89,2.04-15.1h0Z"/><path class="cls-16" d="m538.79,180.19c-.06-.05-.26.14-.68.29-.42.14-1.11.2-1.8-.14-1.4-.68-2.4-3.12-2.22-5.61.09-1.26.47-2.43,1.02-3.38.52-.97,1.24-1.61,1.99-1.66.75-.1,1.22.39,1.35.8.15.4.03.67.1.7.03.04.32-.2.26-.78-.03-.28-.16-.62-.46-.92-.3-.3-.78-.49-1.29-.48-1.07-.03-2.13.85-2.72,1.89-.66,1.04-1.11,2.35-1.22,3.76-.19,2.79.98,5.53,2.91,6.31.95.35,1.78.14,2.23-.15.46-.3.57-.6.52-.63h0Z"/><path class="cls-10" d="m609.34,151.79c-2.63-2-4.19-4.54-3.71-7.81-1.9.38-3.56-2.18-4.49-3.88-.93-1.7-2.18-2.63-1.92-4.55.05-.38.11-.78-.03-1.13-.23-.56-.87-.79-1.43-1.02-2.86-1.19-5.02-3.93-5.5-6.99-3.08,1.02-6.41,1.26-9.61.69-1.62,1.94-4.27,2.97-6.78,2.63-2.51-.34-4.78-2.04-5.83-4.34-.99,1.65-2.89,2.6-4.79,2.9-1.9.3-3.85.04-5.76-.22.49,3.79-2.3,7.71-6.04,8.49-.51.11-1.09.2-1.36.64-.28.46-.07,1.04.07,1.56.91,3.27-1.55,7.06-4.91,7.55,2.1,1.96,1.49,5.99-1.09,7.24-.53.26-1.22.56-1.2,1.15,0,.22.13.43.25.62.9,1.46,1.79,3.05,1.76,4.76-.03,1.72-1.36,3.52-3.08,3.44.82.88,1.57,1.98,1.48,3.19-.09,1.2-1.42,2.31-2.5,1.78-.46-.23-7.21-2.21-7.48-2.65-3.42-5.66,2.04-11.07,3.03-17.61.99-6.54,3.88-12.7,7.69-18.11,1.6-2.27,3.38-4.43,5.52-6.2,2.44-2.02,5.28-3.47,8.11-4.89,3.69-1.85,7.48-3.69,11.57-4.26,7.61-1.07,15.11,2.35,21.76,6.2,2.53,1.46,5.05,3.03,7.09,5.11,2.45,2.5,4.13,5.64,5.56,8.84,2.06,4.62,3.67,9.54,3.7,14.6"/><path class="cls-5" d="m612.49,147.2s-.09-.58-.61-1.55c-.25-.49-.61-1.06-.94-1.78-.32-.72-.55-1.62-.54-2.65-.02-1.03.17-2.17.37-3.41.2-1.24.42-2.62.27-4.11-.14-1.48-.59-3.04-1.42-4.52-.41-.74-.92-1.45-1.52-2.11-.6-.67-1.32-1.24-2.03-1.82-.71-.58-1.43-1.2-1.93-2-.5-.8-.77-1.75-1.07-2.72-.6-1.95-1.54-3.89-2.87-5.64-1.32-1.75-2.97-3.38-4.98-4.6-.98-.65-2.08-1.12-3.21-1.55-1.15-.36-2.35-.67-3.59-.74-.62-.06-1.25-.03-1.87-.02-.63.04-1.25.11-1.87.17-1.24.13-2.48.06-3.69-.33-1.21-.36-2.39-.91-3.63-1.35-1.24-.46-2.53-.79-3.85-1.05-1.32-.26-2.68-.37-4.04-.4-1.37-.01-2.75.12-4.12.38-2.71.57-5.42,1.82-7.37,3.96-.19.21-.38.42-.57.63l.23-.07c-4.09-1.34-8.55-.61-12.11,1.33-3.58,1.93-6.39,5.14-7.52,8.85l.12-.13c-1.74.64-3.46,1.28-5.07,2.12-1.61.83-3.1,1.86-4.27,3.18-1.16,1.33-1.94,2.94-2.23,4.6-.3,1.66-.03,3.43.9,4.79l.03-.23c-2.15,1.8-3.38,4.34-3.82,6.8-.44,2.48-.14,4.96.82,6.99.21.52.52.98.79,1.45.3.45.61.87.84,1.32.23.45.37.92.37,1.4,0,.48-.09.96-.17,1.43-.32,1.89-.44,3.67-.33,5.26.11,1.59.44,3,1,4.11.54,1.12,1.27,1.92,1.94,2.44.67.53,1.28.77,1.61,1.06.34.27.45.47.47.46,0,0-.09-.22-.43-.5-.32-.31-.93-.57-1.58-1.1-.65-.52-1.35-1.31-1.87-2.42-.53-1.1-.84-2.49-.94-4.06-.09-1.57.04-3.33.37-5.2.08-.47.18-.96.18-1.47,0-.52-.15-1.05-.39-1.52-.24-.47-.56-.9-.85-1.35-.26-.46-.56-.91-.77-1.42-.92-1.98-1.2-4.41-.76-6.82.44-2.4,1.65-4.86,3.73-6.59l.12-.1-.09-.13c-.86-1.28-1.11-2.94-.83-4.53.28-1.59,1.04-3.15,2.15-4.42,1.13-1.27,2.59-2.27,4.17-3.08,1.58-.82,3.29-1.45,5.03-2.09l.09-.03.03-.1c1.1-3.6,3.84-6.73,7.34-8.6,3.47-1.89,7.82-2.59,11.78-1.29l.13.04.1-.11c.18-.2.37-.41.56-.61,1.88-2.07,4.5-3.28,7.15-3.84,1.34-.26,2.69-.38,4.03-.37,1.34.03,2.68.14,3.97.39,1.3.25,2.57.57,3.79,1.02,1.23.42,2.41.98,3.66,1.35.62.18,1.27.32,1.91.38.65.05,1.29.02,1.92-.04.63-.06,1.25-.13,1.86-.17.61,0,1.22-.04,1.82.02,1.21.07,2.37.36,3.5.71,1.1.42,2.18.88,3.14,1.51,1.97,1.19,3.59,2.78,4.89,4.5,1.31,1.72,2.24,3.61,2.84,5.53.3.96.58,1.94,1.12,2.79.54.85,1.29,1.48,2.01,2.07.73.58,1.43,1.14,2.01,1.78.59.64,1.09,1.33,1.5,2.05.82,1.44,1.27,2.96,1.42,4.41.16,1.45-.04,2.81-.23,4.06-.19,1.24-.37,2.4-.34,3.44,0,1.05.25,1.97.59,2.7.35.73.72,1.29.98,1.77.27.47.44.85.54,1.11.1.26.13.4.15.4h0Z"/><path class="cls-5" d="m564.3,107.67s.38-.18,1.09-.44c.7-.26,1.75-.58,3.09-.61,1.33-.04,2.94.22,4.48,1.07,1.53.85,2.96,2.27,3.79,4.11.24.53.44,1.09.55,1.62.1.53.08,1.09-.23,1.45l-.38.44.57-.11c1.57-.3,3.12.14,4.23.89,1.12.75,1.78,1.83,2.11,2.77.33.95.36,1.77.33,2.32-.03.55-.1.85-.07.86.01,0,.04-.07.08-.21.04-.14.09-.36.13-.64.07-.56.09-1.41-.23-2.42-.31-.99-.98-2.15-2.16-2.98-1.16-.82-2.8-1.31-4.5-1l.19.33c.43-.51.44-1.2.33-1.79-.12-.6-.32-1.16-.57-1.72-.88-1.93-2.38-3.41-3.99-4.28-1.62-.87-3.31-1.11-4.68-1.03-1.38.07-2.45.44-3.14.75-.35.16-.61.3-.78.41-.17.11-.25.17-.25.18h0Z"/><path class="cls-5" d="m540.46,121.51s.13.21.44.54c.31.32.79.77,1.46,1.23.68.45,1.57.91,2.68,1.07,1.09.16,2.41.03,3.52-.73l-.3-.07c.11.2.23.4.35.6.13.2.28.39.42.59.92,1.14,2.09,1.97,3.26,2.46,1.16.5,2.3.7,3.25.71.95.01,1.71-.15,2.22-.3.5-.17.76-.3.76-.32-.02-.09-1.12.41-2.97.33-.92-.05-2-.27-3.11-.77-1.11-.48-2.21-1.28-3.09-2.36-.13-.19-.28-.37-.4-.55-.11-.19-.23-.38-.34-.57l-.12-.2-.18.13c-.99.69-2.21.84-3.24.7-1.04-.13-1.91-.54-2.58-.94-1.34-.84-2-1.59-2.05-1.53h0Z"/><path class="cls-5" d="m532.01,133.66s-.01.09.01.26c.03.16.09.41.25.7.29.57.99,1.3,2.09,1.68,1.11.4,2.54.3,3.98-.07.73-.19,1.48-.37,2.26-.66.76-.29,1.6-.73,2.06-1.57l.11-.21-.33.07c1.24,1.16,2.53,2.19,3.87,2.83,1.34.66,2.72.87,3.84.75,1.13-.11,1.98-.51,2.49-.87.26-.18.44-.35.55-.47.11-.12.16-.19.15-.2-.03-.03-.27.22-.78.53-.51.31-1.35.65-2.42.71-1.07.08-2.37-.15-3.65-.8-1.29-.64-2.54-1.64-3.76-2.79l-.21-.19-.13.26-.09.18c-.38.69-1.12,1.1-1.85,1.39-.73.28-1.49.48-2.2.67-1.41.38-2.76.5-3.8.17-1.05-.32-1.73-.97-2.04-1.48-.33-.52-.35-.88-.4-.87h0Z"/><path class="cls-5" d="m521.66,83s.24.03.65.18c.4.15.97.48,1.45,1.13.48.65.85,1.6.8,2.73-.02,1.13-.39,2.38-.86,3.72l-.07.22h.23c1.55.11,3.26.71,4.65,1.91,1.39,1.18,2.34,3.06,2.18,5.07-.1,1.83-1.05,3.53-2.42,4.42l-.5.32.59.05c2.14.18,3.96,1.36,5.03,2.77,1.1,1.43,1.43,3.08,1.38,4.4-.04,1.33-.43,2.35-.74,3.01-.32.66-.57.98-.54,1,.01,0,.08-.07.2-.22.12-.15.29-.39.47-.71.36-.65.79-1.68.87-3.06.08-1.36-.22-3.1-1.36-4.62-1.11-1.5-3.01-2.77-5.27-2.97l.09.37c1.5-.96,2.52-2.79,2.62-4.73.08-1.06-.12-2.12-.55-3.05-.42-.93-1.07-1.72-1.79-2.35-1.47-1.26-3.26-1.86-4.89-1.94l.16.23c.44-1.35.81-2.64.81-3.83.02-1.19-.4-2.2-.93-2.86-.52-.67-1.15-.99-1.58-1.11-.22-.06-.39-.08-.5-.08-.12,0-.17,0-.17,0h0Z"/><path class="cls-5" d="m494.31,110.71s.07.06.21.15c.15.09.36.24.66.38.59.3,1.51.67,2.73.88,1.21.21,2.73.26,4.39-.13,1.65-.36,3.43-1.21,4.93-2.63l-.31-.05c1.04,2.14,3.08,4.21,5.83,4.82,2.91.65,5.97-.74,7.21-3.04l-.36-.05c.25.99.8,1.84,1.45,2.49.65.66,1.4,1.14,2.15,1.49,1.52.69,2.99.81,4.17.82,1.19,0,2.12-.11,2.75-.19.63-.09.97-.15.97-.17,0-.02-.35,0-.98.05-.64.04-1.57.12-2.73.08-1.16-.05-2.6-.2-4.03-.88-1.41-.67-2.89-1.93-3.36-3.78l-.12-.48-.24.43c-1.16,2.12-4.05,3.43-6.78,2.82-2.59-.58-4.56-2.54-5.57-4.59l-.12-.24-.19.19c-1.43,1.37-3.14,2.21-4.74,2.59-1.6.41-3.08.38-4.27.21-2.4-.37-3.6-1.27-3.64-1.18h0Z"/><path class="cls-5" d="m506.97,132.22s.01.11.14.27c.13.15.38.33.75.42.73.16,1.82.15,3.1-.23,1.26-.38,2.7-1.2,3.78-2.62,1.07-1.4,1.73-3.36,1.51-5.4v-.04s-.32.2-.32.2c1.74,1.08,3.73,1.41,5.47,1.26,1.75-.14,3.24-.76,4.36-1.43,1.13-.68,1.91-1.41,2.4-1.94.5-.54.72-.87.7-.89-.07-.07-1.03,1.28-3.25,2.57-1.11.62-2.56,1.19-4.24,1.3-1.67.12-3.57-.21-5.22-1.23l-.35-.22.03.42v.04c.21,1.92-.41,3.79-1.4,5.13-1,1.35-2.36,2.17-3.56,2.57-1.21.4-2.28.46-2.97.35-.72-.12-.9-.56-.92-.53h0Z"/><path class="cls-5" d="m551.81,86.23c-.11,0,.62,1.63.24,4.3-.19,1.31-.7,2.86-1.74,4.27-1.04,1.4-2.62,2.63-4.53,3.3-1.07.37-2.18.54-3.23.53h-.26s.05.25.05.25c.34,1.6.32,3.15.1,4.51-.23,1.36-.65,2.52-1.1,3.43-.22.45-.45.87-.68,1.18-.23.31-.52.5-.78.5-.26,0-.45-.11-.54-.22-.09-.11-.1-.19-.12-.19,0,0-.03.09.06.23.08.14.29.3.6.32.32.03.68-.18.94-.51.26-.33.5-.73.75-1.19.5-.92.95-2.1,1.22-3.49.25-1.39.3-3-.05-4.65l-.2.25c1.1.02,2.26-.15,3.38-.54,1.99-.7,3.64-1.99,4.71-3.47,1.07-1.49,1.56-3.11,1.72-4.46.17-1.36,0-2.48-.16-3.22-.09-.37-.17-.65-.25-.84-.07-.19-.11-.28-.13-.28h0Z"/><path class="cls-16" d="m569.56,176.44c-.3,1.42-2.28,2.2-4.41,1.75-2.13-.46-3.62-1.97-3.31-3.39.3-1.42,2.28-2.2,4.41-1.75,2.13.46,3.62,1.97,3.31,3.39h0Z"/><path class="cls-16" d="m600.97,180c0,1.45-1.64,2.63-3.65,2.63s-3.65-1.18-3.65-2.63,1.63-2.63,3.65-2.63,3.65,1.18,3.65,2.63h0Z"/><path class="cls-7" d="m574.43,280.63s-51.54,22.3-52.3,21.24c-.76-1.06-16.15-39.38-12.8-59.2,2.07-12.24,8.68-19.26,18.81-19.58,13.76-.44,23.99,12.95,26.78,16.98,2.8,4.03,19.51,40.56,19.51,40.56h0Z"/><path class="cls-10" d="m574.43,280.63s-.1-.18-.27-.52c-.17-.37-.42-.88-.74-1.54-.65-1.38-1.59-3.38-2.8-5.94-2.43-5.16-5.92-12.64-10.37-21.81-1.12-2.29-2.29-4.69-3.57-7.15-.65-1.23-1.29-2.49-2.09-3.68-.83-1.18-1.72-2.34-2.69-3.48-1.92-2.28-4.07-4.52-6.54-6.51-2.47-1.99-5.25-3.78-8.36-5-3.1-1.24-6.54-1.83-10.02-1.56-3.47.25-6.95,1.56-9.72,3.88-1.37,1.17-2.57,2.57-3.59,4.1-1,1.55-1.79,3.24-2.46,5-.6,1.78-1.15,3.59-1.47,5.48-.23.93-.26,1.89-.38,2.84-.09.95-.24,1.91-.21,2.88-.13,7.75,1.21,15.28,2.85,22.41,1.68,7.13,3.74,13.9,5.92,20.28,1.09,3.18,2.22,6.27,3.41,9.23.3.72.6,1.51.93,2.14v.03s.03,0,.03,0l.26-.04c.18-.04.37-.09.55-.14.37-.11.74-.22,1.1-.35,1.46-.49,2.89-1.03,4.29-1.56,5.59-2.15,10.75-4.29,15.47-6.23,9.39-3.93,17-7.12,22.28-9.33,2.61-1.1,4.65-1.96,6.05-2.55.68-.28,1.2-.5,1.58-.65.36-.15.55-.21.55-.21,0,0-.18.09-.52.26-.37.17-.89.4-1.56.7-1.39.61-3.42,1.5-6.01,2.64-5.23,2.27-12.81,5.54-22.21,9.48-4.71,1.96-9.86,4.12-15.45,6.29-1.4.54-2.83,1.08-4.3,1.58-.37.13-.74.24-1.12.36-.19.05-.38.11-.58.15-.1.02-.21.04-.32.05-.09-.01-.09.03-.25-.03-.19-.11-.14-.14-.18-.19-.4-.76-.65-1.47-.98-2.22-1.21-2.96-2.34-6.05-3.44-9.24-2.2-6.38-4.27-13.16-5.96-20.32-1.65-7.15-3.01-14.71-2.88-22.54-.04-.98.11-1.95.21-2.92.12-.96.16-1.94.38-2.88.32-1.91.88-3.75,1.49-5.56.68-1.78,1.49-3.51,2.52-5.1,1.05-1.57,2.28-3,3.69-4.21,2.86-2.4,6.45-3.73,10.01-3.99,3.56-.28,7.09.33,10.24,1.6,3.16,1.26,5.98,3.07,8.47,5.09,2.49,2.03,4.66,4.28,6.59,6.59.97,1.15,1.86,2.33,2.7,3.52.81,1.22,1.46,2.5,2.1,3.73,1.28,2.48,2.43,4.88,3.55,7.18,4.41,9.2,7.85,16.7,10.22,21.89,1.17,2.58,2.08,4.6,2.71,5.98.3.67.53,1.19.69,1.56.15.36.22.54.22.54h0Z"/><path class="cls-7" d="m613.92,270.19l-7.26,5.75-22.05-49.97s6.64,2.68,12.3,7.11c5,3.92,14.24,27.22,14.24,27.22l2.76,9.89h0Z"/><path class="cls-10" d="m599.25,251.09s.17.19.45.57c.3.43.7,1,1.19,1.7,1,1.5,2.43,3.69,4.03,6.5,1.59,2.81,3.34,6.25,4.95,10.2,1.6,3.96,3.06,8.45,4.15,13.26,1.14,4.81,1.55,9.54,1.5,13.81-.08,4.28-.59,8.12-1.29,11.27-.7,3.16-1.5,5.66-2.15,7.34-.3.85-.6,1.49-.78,1.93-.19.44-.29.66-.31.65-.02,0,.06-.24.21-.69.15-.45.42-1.1.68-1.96.59-1.7,1.33-4.2,1.98-7.35.65-3.15,1.12-6.96,1.17-11.2.03-4.24-.4-8.92-1.53-13.69-1.08-4.79-2.51-9.24-4.08-13.19-1.58-3.94-3.29-7.38-4.83-10.2-1.54-2.82-2.92-5.03-3.87-6.57-.46-.73-.83-1.31-1.11-1.75-.25-.4-.37-.62-.36-.63h0Z"/><path class="cls-16" d="m610.22,327.61c.12-.08,1.83,2.27,4.01,5.1,2.17,2.84,4,5.09,3.89,5.19-.1.09-2.12-2.02-4.3-4.88-2.19-2.85-3.71-5.34-3.59-5.42h0Z"/><polygon class="cls-10" points="322.83 390.89 322.83 373.79 449.57 372.59 451.33 390.89 322.83 390.89 322.83 390.89"/><path class="cls-3" d="m324.38,180.17l4.48-.93s8.96-9.62,13.84-7.12c0,0,3.82,2.24,0,5.67-3.82,3.43-10.67,8.17-12.26,9.75-1.58,1.58-6.29,10.37-12.77,10.65-6.47.28,6.7-18.02,6.7-18.02h0Z"/><path class="cls-10" d="m331.14,165.7c0,.66,1.32,10.26,1.32,11.3,0,0,.09,1.69,2.54,1.6,2.45-.09,2.82-2.71,2.82-2.71l8.76-15.56,7.16-11.49-4.24-15.44s-.94-1.04-2.82,0c-1.88,1.04-16.54,24.87-16.54,24.87l1,7.43h0Z"/><path class="cls-3" d="m336.51,148.63c-.38-.21-.8-.33-1.23-.35-2.56-.14-11.83-.63-13.24-.43-1.64.24-11.4,10.31-11.4,10.31,0,0-6.09,3.44-6.25,7.03-.16,3.59-3.67,14.6-5.08,20.3-1.41,5.7-1.87,7.73-3.51,10.78l18.12,4.76s-.47-.94,3.2-2.5c3.67-1.56,8.59-15.93,7.26-18.35-1.33-2.42-6.01-4.53-6.01-4.53l-.39-2.5,6.95-10,3.2.7s.16,6.64,4.84,6.56c0,0,2.11-.94,1.64-2.19,0,0,2.34,1.64,4.22.62,1.87-1.01-1.02-8.75-2.42-10.54-1.41-1.8-5.39-4.22-5.39-4.22l2.65-.55s5.47,5.31,10.23,1.4c0,0,.94-1.8-.78-2.73-1.38-.75-5.16-2.8-6.61-3.59h0Z"/><path class="cls-16" d="m318.24,173.97c.07.01-.1,1.3-.44,3.35-.34,2.06-.84,4.89-1.42,8.02-.3,1.55-.58,3.03-.84,4.4-.23,1.36-.48,2.59-.82,3.6-.33,1.01-.75,1.77-1.09,2.25-.35.48-.59.7-.61.68-.08-.05.8-1.04,1.35-3.04.29-.99.5-2.2.7-3.56.25-1.37.52-2.86.8-4.42.58-3.13,1.14-5.96,1.57-8,.43-2.04.73-3.3.8-3.28h0Z"/><path class="cls-16" d="m334.61,168.23s-.09-.4-.18-1.12c-.1-.83-.23-1.86-.38-3.06-.09-.64-.19-1.35-.35-2.09-.08-.37-.17-.75-.3-1.1-.09-.31-.46-.54-.78-.79-1.39-.95-3.1-1.78-4.9-2.59-.9-.4-1.8-.77-2.67-1.07-.44-.14-.88-.29-1.29-.35-.38-.06-.75.06-1.13.24-1.5.74-2.71,1.74-3.73,2.53-1.01.81-1.81,1.5-2.37,1.97-.56.47-.87.73-.9.7-.02-.03.24-.33.76-.85.52-.52,1.28-1.25,2.27-2.1,1-.84,2.18-1.87,3.77-2.68.38-.19.89-.37,1.41-.3.48.07.92.22,1.38.36.9.3,1.81.67,2.72,1.07,1.82.82,3.53,1.66,4.97,2.68.33.28.75.52.92,1.01.15.42.23.81.3,1.19.14.76.22,1.48.29,2.13.13,1.3.19,2.36.21,3.09.03.73.02,1.13-.02,1.14h0Z"/><path class="cls-16" d="m314.3,158.27c-.04-.06.77-.78,2.14-1.88,1.37-1.09,3.29-2.61,5.54-4.06.55-.38,1.11-.78,1.78-.98.33-.09.67-.14,1-.12.36.02.64.12.93.21,1.13.38,2.07.84,2.86,1.22,1.58.79,2.51,1.35,2.47,1.42-.03.07-1.02-.39-2.63-1.08-1.56-.51-4.01-2.33-6.11-.24-2.26,1.46-4.18,2.9-5.61,3.92-1.42,1.02-2.32,1.64-2.36,1.58h0Z"/><path class="cls-8" d="m445.46,326.57c1.25-13.55,7.8-122.05,5.31-125.54-2.49-3.5-42.6-12.29-42.6-12.29l-6.08-10.79-2.32-.72-45.16,5.02-6.13,13.05-19.8,7.87s-14.32,21.41-12.63,35.96l3.77,75.87s.68,48.08-.26,64.38c-.15,2.57,1.1,5.02,3.27,6.41h128.01c7.69-1.57-6.62-45.67-5.38-59.22"/><path class="cls-8" d="m325.12,271.01l5.47-68.44s-11.96,3.24-15.68,7.07c-4.28,4.4-19.11,28.22-19.11,28.22l-15.31,55.87s.62,6.5,5.23,6.97c9.52.96,18.41-9.73,23.63-14.34,5.22-4.6,15.77-15.35,15.77-15.35h0Z"/><path class="cls-10" d="m369.5,384.11s-.02-.16-.03-.48c0-.34-.01-.81-.03-1.42-.01-1.27-.03-3.1-.06-5.45-.04-4.76-.1-11.61-.17-20.06-.13-16.94-.31-40.33-.24-66.18.07-25.85.48-49.26,1.21-66.18.23-4.23.43-8.05.61-11.42.25-3.35.47-6.24.65-8.61.26-2.34.46-4.16.6-5.42.07-.6.13-1.07.17-1.41.04-.32.07-.48.07-.48,0,0,0,.17-.02.48-.03.34-.07.81-.12,1.41-.12,1.27-.29,3.09-.5,5.43-.16,2.37-.34,5.26-.56,8.61-.16,3.36-.33,7.19-.53,11.41-.64,16.92-.99,40.32-1.06,66.17-.07,25.84.05,49.24.09,66.17,0,8.45,0,15.3,0,20.06-.02,2.35-.03,4.18-.04,5.45-.01.61-.02,1.08-.02,1.42,0,.32-.03.48-.03.48"/><path class="cls-10" d="m314.91,224.75s.02.08.04.24c.01.19.03.42.05.7.03.66.08,1.56.14,2.7.12,2.39.3,5.78.51,9.94.49,8.43,1.16,20,1.9,32.79.76,12.81,1.41,24.4,1.81,32.8.18,4.17.33,7.55.43,9.95.03,1.14.06,2.04.08,2.71,0,.28,0,.51,0,.7,0,.16,0,.24-.02.24,0,0-.02-.08-.04-.24-.02-.19-.04-.42-.06-.7-.04-.66-.1-1.56-.18-2.7-.14-2.39-.35-5.77-.6-9.94-.51-8.43-1.2-20-1.96-32.79-.76-12.8-1.39-24.4-1.75-32.8-.18-4.2-.29-7.6-.34-9.95-.02-1.14-.03-2.04-.04-2.71,0-.28,0-.51,0-.71,0-.16,0-.24.02-.24h0Z"/><path class="cls-10" d="m408.17,188.73s-.16.18-.51.49c-.38.34-.88.79-1.51,1.36-1.32,1.18-3.2,2.94-5.54,5.14-2.35,2.2-5.15,4.87-8.44,7.72-3.29,2.85-7.1,5.9-11.63,8.44l-.15.08-.11-.09c-.19-.16-.35-.33-.46-.5-.13-.16-.24-.33-.35-.5-.23-.34-.43-.68-.64-1.03-.41-.7-.8-1.41-1.2-2.13-.78-1.44-1.56-2.92-2.34-4.42-1.1-2.11-2.16-4.19-3.24-6.17l.46-.03c-.98,2.5-1.93,4.93-2.84,7.26-.94,2.32-1.78,4.53-2.77,6.62l-.12.26-.23-.19c-5.4-4.66-9.93-8.56-13.15-11.34-1.55-1.36-2.79-2.44-3.67-3.21-.4-.36-.71-.64-.96-.86-.21-.2-.32-.3-.31-.31,0,0,.13.08.36.26.26.21.59.47,1,.81.9.75,2.17,1.8,3.76,3.12,3.25,2.74,7.82,6.59,13.28,11.19l-.35.06c.94-2,1.79-4.26,2.71-6.57.9-2.33,1.85-4.76,2.82-7.26l.2-.52.27.49c1.09,2,2.15,4.07,3.25,6.18.79,1.49,1.56,2.96,2.33,4.41.39.72.78,1.43,1.18,2.12.4.66.84,1.43,1.28,1.86h-.26c4.48-2.51,8.29-5.52,11.58-8.34,3.3-2.82,6.12-5.46,8.5-7.63,2.38-2.17,4.3-3.89,5.65-5.03.67-.58,1.21-1,1.57-1.29.36-.29.56-.43.57-.42"/><path class="cls-6" d="m365.98,215.44l-16.05-18.81c.87.76,2.04,1.79,3.5,3.06,3.22,2.77,7.75,6.68,13.15,11.34l.23.19.12-.26c1-2.08,1.83-4.29,2.77-6.62.16-.41.32-.82.48-1.24l-2.34,11.83-1.86.49m3.93-12.99l.85-2.25-.02.11c-.28.72-.55,1.43-.83,2.13"/><path class="cls-18" d="m366.81,211.22l-.23-.19c-5.4-4.66-9.93-8.56-13.15-11.34-1.45-1.27-2.63-2.3-3.5-3.06l-.3-.36,17.11,14.58,3.18-8.41c.27-.7.55-1.42.83-2.13l-.55,2.8c-.16.42-.32.83-.48,1.24-.94,2.32-1.78,4.53-2.77,6.62l-.12.26"/><path class="cls-11" d="m448.45,349.84h0c-.72-3.67-1.39-7.25-1.93-10.55.07,0,.11,0,.13,0,.75,0,1.8,10.55,1.8,10.55"/><path class="cls-6" d="m377.77,352.92c-1.16,0-2.37-.03-3.62-.1-1.64-.09-3.16-.27-4.57-.51,0-2.7-.02-5.55-.02-8.51,24.17-1.42,74.07-4.36,76.96-4.5.53,3.3,1.21,6.88,1.93,10.55h-52.98s-6.4,3.08-17.7,3.08m-8.58-.68c-9.91-1.81-13.93-6.74-13.93-6.74l1.37-.94s4.93-.29,12.49-.74c.02,2.93.04,5.74.06,8.42"/><path class="cls-18" d="m369.58,352.3c-.13-.02-.26-.04-.39-.07-.02-2.68-.04-5.49-.06-8.42.14,0,.29-.02.43-.02,0,2.97.02,5.81.02,8.51"/><path class="cls-11" d="m447.66,297.34s-.07-.08-.2-.23c0-.12.01-.24.02-.35l.18.59"/><path class="cls-6" d="m447.45,297.1c-1.22-1.42-7.57-8.96-10.04-15.6-2.74-7.35-4.99-33.2-4.99-33.2l15.06,48.44c0,.12-.01.23-.02.35"/><path class="cls-3" d="m400.83,179.45l9.46-63.16c2.96-19.9-6.49-38.17-27.04-40.49l-1.91-.11c-19.25-1.07-36.12,12.4-38.77,30.96-2.47,17.26-4.96,36.36-5.39,45.67-.9,19.28,18.75,23.38,18.75,23.38l-.71,7.84,17.24,12.52,28.37-16.61h0Z"/><path class="cls-16" d="m355.76,175.67s12.61,1.45,26.41-5.94c0,0-6.93,13.52-26.6,10.68l.19-4.75h0Z"/><path class="cls-10" d="m348.12,124.55c-.14,1.45,1.01,2.76,2.56,2.93,1.55.17,2.93-.87,3.06-2.32.14-1.45-1.01-2.76-2.56-2.93-1.56-.17-2.93.87-3.07,2.32h0Z"/><path class="cls-10" d="m346.27,116.31c.33.38,2.56-1.05,5.61-.87,3.04.14,5.19,1.78,5.54,1.44.17-.15-.15-.82-1.08-1.56-.92-.74-2.51-1.5-4.41-1.6-1.9-.1-3.53.49-4.49,1.14-.98.65-1.33,1.28-1.17,1.45h0Z"/><path class="cls-10" d="m374.45,126.37c-.14,1.45,1.01,2.76,2.57,2.93,1.55.17,2.93-.87,3.06-2.32.14-1.45-1.01-2.76-2.56-2.93-1.55-.17-2.93.87-3.07,2.32h0Z"/><path class="cls-10" d="m376.18,118.53c.33.38,2.57-1.04,5.61-.86,3.04.14,5.19,1.78,5.54,1.44.17-.15-.14-.82-1.08-1.56-.92-.74-2.51-1.5-4.41-1.6-1.9-.1-3.53.49-4.49,1.14-.97.65-1.33,1.28-1.17,1.45h0Z"/><path class="cls-10" d="m363.82,139.87c.02-.17-1.85-.59-4.9-1.14-.77-.12-1.5-.31-1.6-.84-.15-.56.22-1.35.65-2.21.84-1.79,1.72-3.66,2.64-5.63,3.68-8.02,6.39-14.63,6.06-14.77-.33-.14-3.59,6.24-7.26,14.26-.89,1.98-1.74,3.86-2.55,5.67-.35.84-.91,1.79-.58,2.94.18.58.72,1.02,1.21,1.18.49.18.93.21,1.31.25,3.08.33,4.99.45,5.01.29h0Z"/><path class="cls-10" d="m376.08,106.89c.25.82,3.32.61,6.86,1.23,3.56.55,6.38,1.73,6.9,1.03.23-.33-.23-1.12-1.35-1.96-1.11-.84-2.91-1.68-5.04-2.04-2.13-.35-4.11-.13-5.45.32-1.34.44-2.04,1.04-1.93,1.42h0Z"/><path class="cls-10" d="m347.9,107.8c.5.7,2.63.12,5.16.23,2.53.02,4.63.71,5.17.04.24-.33-.06-1.02-.96-1.71-.88-.69-2.39-1.29-4.13-1.34-1.74-.04-3.28.48-4.19,1.12-.93.64-1.27,1.32-1.05,1.66h0Z"/><path class="cls-10" d="m345,97.91s5.94-11.77,12.09-14.25c7.45-3,10.11,4.9,17.12,3.41,7.02-1.49,14.13-4.37,20.88,1.21,7.39,6.11,3.53,9.89,3.5,18.47-.12,34.77,5.81,44.93,8.63,28.71.31-1.78,5.5-2.91,6.7-10.43,1.56-9.74,2.65-21.62.81-28.7-1.55-5.97-4.75-10.21-10.65-15.02-9.31-7.59-22.67-8.49-31.8-8.11-9.13.38-27.23,9.56-27.3,24.71h0Z"/><path class="cls-3" d="m406,134.86c.3-2.97,3.08-5.17,6.11-4.72,3.68.55,7.67,2.82,6.99,10.23-1.21,13.15-14.54,9.25-14.53,8.87,0-.26.88-8.89,1.44-14.39h0Z"/><path class="cls-16" d="m407.96,144.56c.06-.04.22.18.6.39.37.21,1.03.38,1.76.19,1.48-.39,2.88-2.49,3.17-4.85.14-1.19,0-2.36-.36-3.34-.33-1-.9-1.72-1.61-1.91-.7-.22-1.25.15-1.45.51-.21.35-.15.62-.23.64-.04.03-.27-.25-.11-.78.08-.26.27-.55.61-.78.35-.23.84-.32,1.33-.22,1.04.16,1.89,1.17,2.27,2.25.44,1.09.64,2.4.48,3.74-.33,2.64-1.95,5-3.96,5.38-.97.16-1.74-.19-2.12-.54-.39-.36-.43-.66-.38-.68h0Z"/><path class="cls-10" d="m343.14,95.17c4,2.35,9.72.55,12.14-3.33,2.97,2.7,8.61,1.52,10.17-2.14,2.1,2.44,6.01,2.5,9.09,1.44,3.09-1.06,5.8-3,8.9-4,3.08-.99,6.45-.91,9.53.05-2.24,3.29.49,8.09,3.15,13.24,1.54,2.96,3.54,6.07,4.8,9.15,1.26,3.08,4.82,5.54,8.06,4.48,2.65-.87,4.07-3.6,5.21-6.09,2.11-4.59,4.27-9.68,2.79-14.5-.99-3.24-3.21-7.75-5.94-9.84-4.29-3.29-5.7-2.6-5.7-2.6,0,0-.26-5.32-4.3-7.97-5.36-3.52-10.27-.94-10.27-.94,0,0-2.86-6.47-11.79-6.44-6.87.02-8.62,3.34-13.14,3.8-2.8.28-5.74-.93-8.36.05-4.42,1.67-4.58,8.04-8.34,10.85-2.07,1.54-4.93,1.76-7.01,3.28-3.73,2.73-2.99,9.16,1.01,11.51h0Z"/><path class="cls-5" d="m415.55,104.88c-.12-.06-.66,1.15-1.57,3.01-.48.9-1.12,1.98-2.23,2.66-1.11.68-2.65.75-4.2.47-1.55-.28-2.95-.89-4.06-1.67-1.1-.78-1.96-1.7-2.65-2.48-1.36-1.58-2.16-2.63-2.26-2.56-.08.05.54,1.2,1.82,2.91.65.84,1.48,1.83,2.65,2.71,1.17.87,2.68,1.56,4.36,1.86,1.64.3,3.44.23,4.75-.63,1.29-.86,1.92-2.08,2.35-3.04.8-1.98,1.13-3.21,1.05-3.25h0Z"/><path class="cls-5" d="m415.04,115.05c-.1-.1-.88.88-2.68,1.44-.89.27-2.02.42-3.23.27-1.22-.15-2.51-.63-3.72-1.38-2.44-1.52-4-3.68-5.09-5.22-1.08-1.56-1.74-2.55-1.85-2.49-.09.05.39,1.13,1.36,2.79.99,1.62,2.53,3.95,5.15,5.58,1.3.8,2.72,1.31,4.07,1.43,1.35.13,2.57-.1,3.51-.47,1.92-.76,2.56-1.95,2.48-1.96h0Z"/><path class="cls-16" d="m372.47,144.72c.6,1.45.57,2.88.77,4.43.19,1.55-.49,2.65-1.48,3.88-1.02,1.28-2.72,1.94-4.39,1.97h-.05c-3.11.04-5.75-2.24-6.24-5.23l-.54-3.27c3.18-.84,11.69-1.57,11.93-1.78h0Z"/><path class="cls-10" d="m364.14,154.05c.02-.06.4.02,1.08.11.68.09,1.68.21,2.86.02,1.17-.18,2.51-.78,3.48-1.98.97-1.16,1.48-2.87,1.37-4.62-.06-.97-.32-1.89-.73-2.67l.42.2c-3.05.45-5.71.8-7.61,1.02-1.9.22-3.05.31-3.07.21-.01-.1,1.11-.35,2.99-.71,1.88-.36,4.53-.81,7.57-1.3l.28-.04.13.25c.49.89.78,1.92.84,2.99.12,1.94-.46,3.83-1.61,5.15-1.12,1.32-2.71,1.95-3.99,2.07-1.3.13-2.33-.09-3.01-.28-.68-.19-1.03-.37-1.02-.42h0Z"/><polygon class="cls-4" points="334.55 292.54 340.08 334.5 361.9 334 365.39 292.54 334.55 292.54 334.55 292.54"/><polygon class="cls-12" points="367.47 293.84 332.34 293.84 332.34 289.27 367.47 289.27 367.47 293.84 367.47 293.84"/><path class="cls-12" d="m335.5,290.18c.07-.22,1.82-4.29,1.82-4.29l24.51-3.27,2.62,7.56h-28.94Z"/><path class="cls-10" d="m367.47,289.27c0,.14-7.78.26-17.37.26s-17.37-.12-17.37-.26,7.78-.26,17.37-.26,17.37.12,17.37.26h0Z"/><path class="cls-3" d="m389.43,321.9s-9.08-11.29-13.86-12.45c-4.78-1.16-11.54-.9-11.54-.9l-1.08,7.16s-22.4.83-24.86,1.4c-2.46.58-3.76,4.05-2.6,5.64,1.16,1.59,1.45,1.45,6.8,1.45s11.43,0,11.58,1.3c.14,1.3.14,2.46-1.88,2.46s-10.85.87-12.3.58c-1.45-.29-5.2.72-4.62,3.62.57,2.9,4.62,4.92,6.8,4.78,2.17-.14,2.75,0,2.75,0,0,0-.72,5.2,4.34,5.49,0,0,.72,2.17,3.47,3.04,2.75.87,17.51,4.49,24.31,4.34,6.8-.14,14.18-4.34,14.18-4.34l-1.48-23.59h0Z"/><path class="cls-16" d="m355.26,336.13c0,.14-2.37.43-5.31.64-2.94.21-5.34.27-5.35.12-.01-.14,2.37-.43,5.31-.64,2.94-.21,5.34-.27,5.35-.12h0Z"/><path class="cls-16" d="m360.88,342.49c-.05.06-.59-.42-1.7-.47-1.08-.05-2.66.1-4.37.19-3.43.24-6.22.44-6.23.29-.01-.13,2.75-.56,6.2-.8,1.73-.09,3.28-.19,4.44-.04,1.19.16,1.72.81,1.65.84h0Z"/><path class="cls-3" d="m389.43,321.9s30.94-3.15,38.65-5.11c11.19-2.85,29.91-11.34,29.91-11.34l11.99-5.88,21.58,10.75s.56,12.24-2.89,18.27c-3.45,6.04-10.2,10.78-16.67,12.36-6.47,1.58-81.1,4.54-81.1,4.54l-1.48-23.59h0Z"/><path class="cls-8" d="m449.66,200.06s13.71,4.79,17.88,17.98c3.45,10.94,25.32,75.87,24.22,85.21,0,0,2.77,1.67,2.74,4.49-.05,4.07-2.65,3.85-2.65,3.85-3.57-.28-32.24-6.54-40.51-3.24l-18.92-56.69c0-1.67,2.19-22.18,4.67-33.99,2.47-11.81,12.58-17.61,12.58-17.61h0Z"/><path class="cls-10" d="m427.57,228.17s.08-.54.31-1.51c.11-.49.25-1.08.49-1.74.24-.67.44-1.45.81-2.26.34-.82.7-1.73,1.2-2.66.45-.95,1.03-1.91,1.65-2.92,1.28-1.98,2.87-4.05,4.82-5.96,1.97-1.9,4.08-3.44,6.1-4.65,1.04-.57,2.01-1.12,2.99-1.52.95-.45,1.88-.76,2.72-1.05.83-.32,1.63-.47,2.31-.65.68-.19,1.28-.29,1.78-.36.98-.15,1.53-.22,1.53-.18.02.12-2.18.37-5.51,1.54-.83.31-1.74.63-2.66,1.1-.95.41-1.91.97-2.92,1.54-1.98,1.21-4.05,2.74-5.98,4.61-1.92,1.88-3.5,3.91-4.78,5.85-.62.99-1.21,1.92-1.67,2.85-.51.9-.89,1.79-1.25,2.6-1.38,3.25-1.84,5.41-1.95,5.38h0Z"/><path class="cls-10" d="m431.25,243.83s.09.22.22.65c.14.48.32,1.11.54,1.89.48,1.71,1.15,4.07,1.96,6.97,1.67,5.88,4.09,13.97,6.92,22.86,2.83,8.89,5.5,16.91,7.42,22.71.94,2.86,1.71,5.2,2.26,6.88.24.77.44,1.4.59,1.88.13.43.19.66.17.67-.02,0-.11-.21-.27-.63-.17-.47-.4-1.09-.68-1.85-.59-1.67-1.41-3.99-2.41-6.83-2.01-5.78-4.73-13.78-7.57-22.67-2.83-8.9-5.19-17.01-6.78-22.92-.79-2.96-1.41-5.35-1.8-7.02-.18-.79-.33-1.43-.45-1.92-.1-.44-.14-.67-.12-.68h0Z"/><path class="cls-10" d="m488.88,303.29s-.54-.05-1.48-.22c-.94-.18-2.31-.42-4-.67-3.38-.51-8.1-.98-13.32-.92-5.22.06-9.93.64-13.3,1.23-1.69.29-3.05.56-3.98.77-.94.2-1.46.29-1.47.26,0-.03.5-.19,1.42-.45.92-.27,2.28-.59,3.96-.93,3.37-.69,8.1-1.32,13.36-1.39,5.26-.05,10,.47,13.38,1.08,1.69.3,3.06.59,3.98.84.93.24,1.44.39,1.43.42h0Z"/><path class="cls-3" d="m295.8,196.26s-30.65,56.02-33.42,62.16c-2.76,6.14-10.44,32.85,2.15,41.44,12.59,8.6,22.72-1.54,22.72-1.54,0,0,11.36-13.51,10.44-27.63-.92-14.12,9.03-45.95,9.03-45.95l7.2-23.73-18.12-4.76h0Z"/><g class="cls-19"><path class="cls-13" d="m56.09,235.82s-.06-.28-.21-.76c-.68-2.31-3.15-9.2-8.85-11.15-6.87-2.35-21.46-5.2-25.15-6.71-3.69-1.51-6.04-2.68-7.04-.84-1.01,1.85.5,4.69,2.52,5.53,2.01.84,8.55,3.72,8.55,3.72l-3.52,10.2s18.95,7.04,21.8,10.06c2.85,3.02,2.27,6.87,2.27,6.87l12.18-9.92-2.55-7.01h0Z"/><path class="cls-13" d="m1,212.77s-1.28.2-.46,1.53c.82,1.32,8.15,9.78,8.15,9.78,0,0-1.01,3.26,0,4.28,1.01,1.02,9.92,5.3,9.92,5.3,0,0,5.01,6.11,8.22,7.13,3.21,1.02,15.66,3.85,15.66,3.85l-2.56-11.9-9.34.41-4.31-3.67s2.11-4.17,2.57-4.07c.46.1,4.95-.61,4.49-1.83-.46-1.22-1.01-2.44-4.31-2.04-3.3.41-8.38,5.19-8.38,5.19l-2.43-1.53,3.02-5.29s6.78-1.32,5.22-6.11c0,0-7.05,1.53-8.24,2.34-1.19.81-4.95,8.25-4.95,8.25l.27-6.72s3.76-3.87,3.11-6.31c-.64-2.44-2.38-2.34-2.38-2.34l-5.13,7.33-.21,1.25s-3.54-3.8-5.1-4.61c-1.56-.81-2.84-.2-2.84-.2h0Z"/><path class="cls-14" d="m42.46,244.77s-.16-.02-.47-.08c-.33-.07-.78-.16-1.37-.29-1.22-.28-2.98-.67-5.25-1.18-2.28-.54-5.07-1.16-8.28-2.06-1.66-.46-3.09-1.66-4.5-2.9-1.4-1.28-2.79-2.74-4.15-4.35l.06.05c-2.11-1.01-4.35-2.11-6.67-3.33-.58-.31-1.17-.62-1.75-.96-.29-.16-.59-.34-.88-.52-.28-.2-.61-.36-.85-.71-.42-.7-.37-1.46-.32-2.16.07-.72.21-1.42.42-2.12l.04.21c-1.49-1.73-3.04-3.54-4.64-5.4-.79-.95-1.59-1.91-2.4-2.88-.4-.5-.8-.97-1.17-1.55-.17-.29-.35-.65-.26-1.09.12-.46.53-.69.91-.76l-.07.02c.81-.33,1.69-.31,2.51-.03.82.28,1.47.85,2.1,1.38,1.26,1.09,2.44,2.28,3.62,3.52l-.43.13c.07-.39.14-.82.21-1.25v-.06s.04-.05.04-.05c1.63-2.33,3.36-4.81,5.13-7.33l.08-.11h.12c1.05,0,1.88.74,2.29,1.59.2.44.37.86.42,1.37.03.49-.04.98-.19,1.43-.61,1.81-1.79,3.3-3.05,4.7l.07-.17c-.01.27-.02.56-.03.85-.08,1.97-.16,3.93-.24,5.87l-.49-.13c.72-1.4,1.45-2.78,2.21-4.14.78-1.35,1.5-2.7,2.52-3.92.3-.34.71-.5,1.06-.65.36-.14.73-.26,1.09-.37.73-.22,1.45-.42,2.18-.61,1.45-.38,2.89-.72,4.32-1.03l.23-.05.06.22c.22.79.33,1.64.1,2.45-.24.8-.74,1.49-1.34,2.01-1.22,1.05-2.69,1.61-4.18,1.96l.16-.12c-1.04,1.81-2.04,3.57-3.03,5.29l-.08-.31c.83.52,1.63,1.03,2.42,1.53l-.28.03c1.36-1.24,2.77-2.36,4.24-3.34,1.47-.93,3.03-1.85,4.77-1.95.84-.07,1.7-.05,2.51.22.4.14.8.37,1.08.71.29.34.43.79.44,1.21.02.43-.14.9-.45,1.2-.3.31-.66.51-1.02.66-.73.3-1.49.43-2.23.49l.12-.06c-1.26,1.38-2.43,2.65-3.55,3.87l-.02-.24c1.55,1.33,2.97,2.55,4.29,3.68l-.16-.02c1.19-.52,2.34-.93,3.46-1.23,1.12-.28,2.2-.44,3.21-.51,2.02-.11,3.75.17,5.09.53,1.35.37,2.34.77,3,1.06.33.14.58.27.74.35.17.08.25.12.24.13,0,0-.09-.03-.26-.09-.19-.08-.44-.18-.76-.31-.67-.26-1.67-.64-3.01-.98-1.34-.34-3.04-.58-5.03-.46-.99.08-2.05.26-3.15.54-1.1.3-2.24.72-3.41,1.24l-.09.04-.07-.06c-1.33-1.13-2.76-2.33-4.32-3.65l-.13-.11.12-.13c1.11-1.23,2.27-2.51,3.52-3.9l.05-.05h.07c.71-.07,1.44-.2,2.11-.48.66-.27,1.29-.78,1.22-1.5,0-.73-.53-1.33-1.25-1.55-.72-.24-1.53-.26-2.34-.19-1.62.09-3.12.97-4.56,1.9-1.44.96-2.84,2.08-4.17,3.3l-.13.12-.15-.09c-.8-.5-1.6-1-2.43-1.52l-.19-.12.11-.2c.98-1.72,1.99-3.49,3.02-5.3l.05-.09.11-.03c1.39-.33,2.84-.89,3.94-1.85.55-.48.98-1.08,1.19-1.78.2-.7.09-1.45-.1-2.16l.29.17c-1.42.31-2.86.65-4.3,1.03-.72.19-1.44.39-2.15.61-.69.24-1.49.43-1.92.88-.93,1.12-1.68,2.5-2.44,3.82-.75,1.35-1.48,2.73-2.2,4.12l-.54,1.06.05-1.19c.08-1.94.16-3.9.24-5.87.01-.29.02-.58.03-.85v-.09s.07-.08.07-.08c1.22-1.34,2.38-2.84,2.93-4.49.14-.41.19-.83.17-1.24-.03-.39-.19-.82-.37-1.18-.35-.74-1.07-1.3-1.8-1.31l.2-.11c-1.77,2.52-3.51,5-5.13,7.33l.04-.1c-.07.43-.15.87-.21,1.25l-.08.5-.35-.37c-1.16-1.23-2.35-2.42-3.57-3.49-.62-.52-1.23-1.05-1.94-1.29-.7-.25-1.5-.24-2.14,0h-.04s-.03.02-.03.02c-.24.05-.49.2-.52.39-.04.2.05.48.21.73.32.5.75,1.01,1.13,1.5.81.97,1.6,1.93,2.38,2.88,1.59,1.87,3.14,3.68,4.62,5.41l.08.09-.03.12c-.2.67-.34,1.36-.41,2.04-.06.67-.06,1.39.24,1.88.35.44,1.03.77,1.58,1.11.58.33,1.16.65,1.74.96,2.31,1.23,4.54,2.33,6.64,3.35l.04.02.03.03c1.34,1.6,2.71,3.06,4.09,4.34,1.39,1.25,2.79,2.42,4.36,2.87,3.19.93,5.98,1.58,8.25,2.15,2.25.55,4.01.98,5.22,1.28.58.14,1.03.26,1.35.34.3.08.46.13.46.13h0Z"/></g><path class="cls-14" d="m23.24,235.77c-.07.11-2.12-1.64-3.34-4.64-.14-.37-.29-.72-.42-1.07-.15-.37-.19-.8-.13-1.18.2-.77.6-1.24.91-1.67.64-.84,1.27-1.16,1.31-1.07.02.05-.47.42-1.01,1.29-.26.41-.62.97-.73,1.53-.04.3,0,.61.13.92.14.32.29.71.43,1.06,1.16,2.88,2.98,4.73,2.85,4.84h0Z"/><path class="cls-14" d="m14.56,230.09c-.01.06-.42.04-.98-.29-.55-.32-1.21-1.02-1.44-2.01-.22-.99.09-1.91.45-2.43.36-.54.72-.73.76-.68.06.06-.2.34-.44.86-.24.51-.44,1.31-.26,2.14.19.83.71,1.47,1.15,1.83.44.37.79.51.76.59h0Z"/><path class="cls-14" d="m8.96,224.25c-.15.01-.34-1.78-.23-3.97.09-2.19.29-3.95.43-3.95.15,0,.18,1.79.09,3.97-.1,2.18-.15,3.94-.29,3.95h0Z"/><path class="cls-10" d="m103.28,390.89s94.99.4,97,0c2.01-.4-11.29-50.39-11.29-50.39l-77.41-2.75-8.29,53.14"/><path class="cls-10" d="m104.82,236.05l6.15-42.83c2.78-33.41,2.16-74,7.13-84.6,9.18-19.57,36.95-20.04,36.95-20.04,36.87-.77,42,27.79,44.41,53.69.41,4.39,1.87,12.24,3.77,21.32,4.49,18.93,10.36,38.43,23.3,51.81,4.94,5.1,8.08,12.08,8.9,19.14.82,7.05-3.32,15.3-10.38,16.11,3.4,3.58,5.03,8.77,4.29,13.65-.74,4.88-3.84,9.35-8.15,11.76-6.07,3.4-13.55,2.58-20.41,1.43-6.82-1.14-13.95-2.67-19.14-7.24-5.2-4.58-7.62-11.49-9.39-18.19-2.13-8.07-3.62-16.3-4.46-24.6l-62.97,8.59h0Z"/><path class="cls-13" d="m149.63,98.73l2.41-2.07,24.33,11.27c3.58.38,6.28,3.44,6.21,7.04l-7.82,82.95c-.25,5.49,1.92,8.15-1.61,12.36l-24.27,28.01c-8.48,10.1-6.58-12.98-12.29-24.87-.4-.83,1.66-3.75,1.56-4.33-.1-.73-.27-1.21-.28-1.83-.41-6.55-.17-12.2-.17-12.2-.08-7.17-.08-10.11-.08-10.04,0,0-15.12-2.52-18.25-22.25-1.55-9.82-.49-23.16.75-36.28,1.72-18.16,14.89-28.51,29.52-27.75h0Z"/><path class="cls-10" d="m148.97,140.65c-.05,1.34,1.04,2.48,2.44,2.55,1.39.08,2.56-.94,2.61-2.28.05-1.34-1.04-2.48-2.44-2.56-1.4-.08-2.57.95-2.61,2.28h0Z"/><path class="cls-10" d="m123.9,139.34c-.05,1.34,1.04,2.48,2.44,2.56,1.39.07,2.56-.94,2.61-2.28.05-1.34-1.04-2.48-2.44-2.56-1.4-.08-2.57.95-2.61,2.28h0Z"/><path class="cls-10" d="m122.44,131.81c.31.33,2.23-1.09,4.96-1.08,2.72-.03,4.72,1.37,5.01,1.04.15-.15-.17-.74-1.04-1.38-.86-.63-2.32-1.24-4.01-1.24-1.7,0-3.12.63-3.94,1.27-.84.64-1.12,1.24-.97,1.39h0Z"/><path class="cls-10" d="m149.99,133.49c.35.3,2.11-1.31,4.82-1.58,2.7-.31,4.83.88,5.09.52.13-.16-.25-.72-1.18-1.26-.92-.54-2.43-1-4.12-.82-1.69.18-3.04.95-3.79,1.67-.76.72-.99,1.35-.82,1.48h0Z"/><path class="cls-10" d="m139.5,152.78c.01-.15-1.68-.45-4.42-.8-.7-.07-1.35-.21-1.47-.68-.16-.5.13-1.25.47-2.06.65-1.68,1.34-3.45,2.06-5.3,2.86-7.54,4.93-13.74,4.63-13.85-.31-.11-2.87,5.91-5.73,13.44-.69,1.86-1.35,3.63-1.97,5.33-.26.79-.72,1.69-.36,2.73.19.52.7.9,1.14,1.02.45.14.84.14,1.18.17,2.76.15,4.47.16,4.48,0h0Z"/><path class="cls-14" d="m137.61,185.01s13.28.86,26.43-7.04c0,0-6.65,13.66-26.4,11.8l-.03-4.76h0Z"/><path class="cls-14" d="m142.92,157.9c.98-1.29,3.89-3.31,5.6-3.12,1.18.13,1.96.98,2.68,1.95.72.96-.04,3.61-.69,4.53-.74,1.03-2.16,1.8-3.46,1.43-1.3-.37-2.99-2.3-4.05-3.15-.29-.24-.59-.48-.78-.81-.18-.32.47-.55.7-.82"/><path class="cls-10" d="m147.93,122.77c.34.71,3.01.08,6.23.14,3.22,0,5.88.66,6.23-.04.16-.34-.36-.98-1.47-1.59-1.1-.61-2.81-1.12-4.74-1.14-1.93-.01-3.65.47-4.76,1.05-1.12.59-1.65,1.23-1.5,1.57h0Z"/><path class="cls-10" d="m123.42,120.16c.48.62,2.35-.02,4.61-.05,2.25-.11,4.17.42,4.61-.23.19-.31-.11-.93-.94-1.52-.82-.58-2.2-1.06-3.75-1.02-1.55.05-2.89.61-3.68,1.24-.8.64-1.06,1.27-.85,1.58h0Z"/><path class="cls-10" d="m180.33,149.47s-14.13,3.63-20.27-31.11c-2.1-11.88-12.5-21.94-12.5-21.94l4.48-1.1s27.05,9.12,27.49,9.49c.44.37,6.2,14.54,6.2,14.54l-5.4,30.12h0Z"/><path class="cls-13" d="m176.97,148.02c0-1.47,1.71-4.93,3.16-5.16,3.88-.6,10.86-.29,10.92,9.56.08,13.45-13.44,10.76-13.47,10.38-.02-.3-.62-9.7-.61-14.77h0Z"/><path class="cls-14" d="m181.66,157.67c.06-.04.23.16.63.34.39.17,1.05.29,1.75.03,1.42-.53,2.6-2.79,2.65-5.22.03-1.22-.24-2.39-.68-3.35-.42-.98-1.06-1.67-1.77-1.79-.71-.16-1.22.27-1.38.65-.18.38-.09.65-.16.67-.04.03-.29-.22-.18-.78.05-.27.21-.59.52-.85.32-.26.79-.4,1.29-.35,1.04.07,1.98,1.02,2.46,2.07.54,1.06.87,2.37.84,3.75-.07,2.71-1.44,5.26-3.38,5.83-.94.25-1.74-.03-2.15-.34-.42-.33-.49-.63-.44-.65h0Z"/><path class="cls-10" d="m171.23,142.43s-.74-.09-1.99-.51c-1.25-.42-2.98-1.33-4.64-3.01-.82-.84-1.63-1.86-2.34-3.04-.7-1.19-1.32-2.55-1.83-4.02-1.04-2.95-1.63-6.36-2.4-9.9-.76-3.55-1.62-6.9-2.59-9.9-.96-3-2.06-5.62-3.11-7.76-1.06-2.13-2.08-3.77-2.83-4.87-.37-.55-.69-.96-.9-1.24-.21-.28-.33-.42-.34-.41,0,0,.09.16.28.46.19.3.49.71.84,1.27.72,1.12,1.7,2.77,2.72,4.9,1.02,2.14,2.09,4.76,3.03,7.75.95,2.99,1.79,6.33,2.56,9.87.76,3.53,1.36,6.96,2.43,9.94.53,1.49,1.16,2.86,1.88,4.07.74,1.2,1.57,2.23,2.42,3.07,1.71,1.69,3.5,2.59,4.77,2.97,1.28.39,2.03.38,2.03.38h0Z"/><path class="cls-10" d="m147.25,162.89c-.03-.14,1.15-.09,2.4-1.19.6-.53,1.19-1.37,1.35-2.4.16-1.02-.19-2.23-.98-3.14-.48-.56-1.1-.95-1.72-1.15h.26c-3.81,1.57-6.15,3.64-6.29,3.47-.12-.1,2.07-2.45,5.99-4.18l.12-.05.13.04c.78.23,1.52.7,2.1,1.36.95,1.08,1.34,2.53,1.1,3.77-.24,1.25-.98,2.16-1.71,2.71-1.53,1.12-2.8.83-2.75.76h0Z"/><path class="cls-15" d="m202.02,344.27c-12.12,5.35-26.06,6.87-39.14,4.26-9.43-1.88-14.01.32-23.59,1.25-5.66.55-15.8-3.36-21.49-3.53-5.63-.16-11.12-2.87-14.53-7.16l11.52-112.22,11.2-29.74,11.6-1.48s-.9,12.42,16.89,13.52c17.79,1.1,20-13.1,20-13.1,0,0,33.94,6.64,33.65,7.67-.29,1.04-20.26,113.23-20.26,113.23l14.12,27.29"/><path class="cls-4" d="m178.62,191.98c-.56,1.61-8.85,89.9-9.69,113.19-.84,23.29,7.89,85.9,7.89,85.9l49.04-.35-19.94-72.9,8.91-113.72-28.5-6.97-7.71-5.15"/><polyline class="cls-11" points="207.64 324.13 205.92 317.82 205.93 317.65 207.64 324.13 207.64 324.13"/><path class="cls-4" d="m200.91,325.45c-.45,0-.91-.02-1.39-.06-6.59-.55-13.5-2.17-20.8-11.4-7.3-9.23-6.01-30.34-6.01-30.34l31.4,27.12,1.81,6.86v.17s1.71,6.3,1.71,6.3c-.01,0-2.85,1.33-6.73,1.33"/><path class="cls-4" d="m211.76,203.35s17.16,5.29,19.34,26.29c1.77,17.08-8.99,70.15-12.85,77.65-5.63,10.95-14.04,18.07-31.19,8.59-6-3.32-12.47-15.1-14.44-33.04-2.57-23.39-3.7-51.07-3.7-51.07l20.44-3.21,10.22,28.66,12.17-53.88h0Z"/><path class="cls-10" d="m202.11,320.23s-.17.01-.49.01c-.35,0-.83,0-1.46-.01-.64-.02-1.44.02-2.36-.15-.46-.07-.96-.14-1.5-.21-.27-.04-.55-.07-.82-.13-.28-.08-.56-.16-.86-.24-.59-.16-1.21-.33-1.86-.51-.63-.24-1.28-.53-1.96-.82-.34-.16-.7-.27-1.03-.47-.33-.2-.68-.39-1.02-.6-.35-.2-.7-.41-1.06-.62-.36-.21-.68-.5-1.03-.75-2.8-2.04-5.48-5.05-7.64-8.84-2.16-3.78-3.9-8.29-4.99-13.29-1.12-5-1.61-10.45-2.16-16.16-1.02-11.43-1.82-24.02-2.55-37.23-.15-2.9-.3-5.77-.45-8.6v-.24s.22-.03.22-.03c9.84-1.39,19.23-2.73,27.96-3.97l.23-.03.04.22c.84,4.25,1.65,8.35,2.42,12.25.73,3.92,1.58,7.61,2.42,11.09,1.68,6.96,3.23,13.06,4.28,18.17,2.15,10.22,2.41,16.34,2.41,16.34,0,0-.02-.09-.05-.28-.03-.2-.06-.48-.1-.83-.08-.73-.2-1.81-.4-3.21-.38-2.8-1.03-6.87-2.14-11.96-1.09-5.09-2.68-11.18-4.39-18.14-.85-3.48-1.72-7.18-2.47-11.09-.78-3.91-1.6-8-2.45-12.25l.27.19c-8.72,1.25-18.12,2.6-27.95,4l.22-.27c.15,2.83.3,5.69.45,8.59.73,13.21,1.52,25.8,2.51,37.22.53,5.7,1.01,11.14,2.1,16.11,1.06,4.97,2.77,9.44,4.89,13.2,2.12,3.76,4.75,6.75,7.49,8.79.35.25.66.54,1.01.75.35.21.7.42,1.04.62.34.2.68.4,1.01.6.32.2.69.32,1.02.47.67.29,1.31.59,1.94.83.64.19,1.26.36,1.84.53.29.08.57.17.85.25.28.07.55.09.82.14.53.08,1.02.16,1.48.24.92.19,1.71.17,2.34.2.62.03,1.1.05,1.45.07.33.02.49.04.49.04h0Z"/><path class="cls-10" d="m207.38,218.95c.14.03-1.15,6.36-2.88,14.13-1.73,7.78-3.24,14.05-3.39,14.02-.14-.03,1.15-6.36,2.88-14.13,1.73-7.77,3.24-14.05,3.39-14.02h0Z"/><path class="cls-11" d="m97.56,391.27h0c.07,0,.14,0,.21,0h-.21m12.53-.19c.1,0,.19,0,.29,0h.26-.54"/><path class="cls-18" d="m110.63,391.07h-.26c1.61-.05,3.01-.1,4.02-.13,1.19,0,2.47,0,3.8.01l-7.57.12"/><path class="cls-18" d="m118.2,390.95c-1.34,0-2.61,0-3.8-.01.59-.02,1.05-.04,1.36-.04,0,0,5.53-21.07,10.14-43.25,1.35.32,2.72.65,4.08.96-3.77,23.44-8.1,42.29-8.1,42.29l-3.67.06"/><path class="cls-11" d="m129.97,348.6c-1.36-.31-2.73-.64-4.08-.96,2.19-10.5,4.17-21.24,5.26-30.11,1.08-8.77,2.13-24.77,3.06-42.53,3.22,18.08-.19,48.48-4.23,73.6"/><g class="cls-20"><path class="cls-4" d="m111.57,198.34s-11.6,1.8-19.21,13.95c-6.96,11.11-9.09,53.81-9.09,53.81l-21.33-31.47-21.88,12.66s27.12,58,29.93,64.07c7.24,15.64,21.54,13.15,32.42,9.85,10.88-3.31,3.42-86.42,3.42-86.42l5.75-36.45h0Z"/><path class="cls-4" d="m105.98,316.85c-.28.06-18.1,73.34-18.1,73.34,0,1.84,24.33.8,27.87.71,0,0,12-45.76,15.4-73.36,3.4-27.59,6.49-126.85,6.49-126.85l-8.79,5.62-17.28,2.04-11.14,35.91c-7.41,23.88-6.57,49.57,2.39,72.92l3.16,9.67"/></g><path class="cls-10" d="m131.46,297.84s-.06-.07-.16-.22c-.11-.18-.25-.39-.41-.67-.34-.6-.94-1.44-1.5-2.62-1.26-2.3-2.76-5.83-4.08-10.34-1.33-4.51-2.35-10.04-2.94-16.22-.63-6.18-.78-13.02-.74-20.18-.05-7.17.71-14,1.73-20.12,1-6.13,2.15-11.6,3.01-16.2.88-4.61,1.51-8.34,1.88-10.94.21-1.29.32-2.31.42-2.99.05-.32.09-.57.12-.78.03-.17.05-.26.06-.26,0,0,0,.09,0,.27-.02.21-.04.46-.06.78-.07.69-.15,1.7-.33,3-.31,2.61-.89,6.36-1.72,10.98-.82,4.62-1.93,10.1-2.9,16.21-1,6.11-1.74,12.89-1.69,20.04-.04,7.15.1,13.96.7,20.12.57,6.16,1.54,11.67,2.82,16.17,1.27,4.5,2.7,8.03,3.91,10.35.53,1.2,1.11,2.05,1.41,2.66.15.28.27.51.37.69.08.16.12.24.11.25"/><path class="cls-10" d="m101.6,334.13s0-.11.05-.32c.05-.24.12-.55.21-.93.2-.85.49-2.04.84-3.56.77-3.12,1.86-7.57,3.2-13.03v.11c-1.54-4.48-3.25-9.74-4.9-15.6-1.63-5.86-3.23-12.32-4.35-19.18-.6-3.7-1.05-7.38-.98-10.94.03-3.55.31-6.96.67-10.2.77-6.47,1.82-12.24,2.77-17.06.98-4.79,1.77-8.68,2.33-11.41.26-1.32.47-2.36.62-3.1.07-.33.12-.6.17-.81.04-.18.07-.27.07-.27,0,0,0,.1-.02.28-.03.21-.07.48-.11.82-.1.72-.28,1.77-.53,3.12-.52,2.74-1.26,6.64-2.17,11.44-.9,4.83-1.92,10.6-2.66,17.05-.34,3.23-.61,6.63-.63,10.15-.06,3.53.38,7.16.99,10.85,1.12,6.83,2.7,13.27,4.31,19.13,1.62,5.85,3.29,11.12,4.8,15.61l.02.06v.05c-1.43,5.45-2.57,9.88-3.38,12.99-.4,1.5-.72,2.69-.95,3.53-.11.38-.19.68-.26.92-.06.21-.1.31-.11.31h0Z"/><path class="cls-10" d="m95.33,296s-.12-.46-.24-1.28c-.11-.83-.3-2.03-.59-3.49-.56-2.93-1.62-6.94-3.38-11.15-1.78-4.2-3.91-7.75-5.62-10.2-.85-1.23-1.57-2.2-2.09-2.86-.51-.66-.78-1.04-.75-1.07.03-.02.35.31.91.94.57.62,1.34,1.57,2.23,2.78,1.8,2.41,4,5.97,5.8,10.22,1.78,4.24,2.79,8.31,3.27,11.28.24,1.49.38,2.7.43,3.54.06.84.07,1.3.03,1.31h0Z"/><path class="cls-5" d="m181.56,132.1c0,.44-15.96,49.08-15.96,49.08l9.62,16.1,3-.73,13.42-44.57s-6.43-19.43-7.16-19.87c-.73-.44-2.92,0-2.92,0h0Z"/><path class="cls-13" d="m190.98,208.47s1.18-10.21,3-14.97c1.82-4.76,1.43-7.76,1.43-10.58,0-2.21-1.67-6.19-1.67-6.19,0,0-4.37-15.33-4.9-17.8-.54-2.47.2-7.18-2.48-7.07-2.68.11-3.32,2.04-3.32,5.68s.75,4.93.75,4.93c0,0-4.83-3.11-7.51-2.89-2.68.21-8.36,2.14-8.36,2.14,0,0-2.03,4.38,5.9,3.32,1.61-.22,4.29,1.39,4.29,1.39l-9.22.86-4.61,5.79s1.71,3.32,6.75-.64l6.75-.32,3.43,7.29-6.44-3.82-8.58,1.61-2.98,5.72s-.45,2.07,2.13,1.32c2.57-.75,3.94-3.36,3.94-3.36l4.64.68,3.43,4.5s-3.11,14.26-2.68,19.19c.43,4.93,1.71,9.33,1.71,9.33l.51,15.95,17.97-2.67-3.9-19.39h0Z"/><path class="cls-14" d="m190.98,208.47s.04.11.08.32c.05.23.12.55.21.96.18.87.45,2.12.79,3.75.68,3.31,1.68,8.15,2.95,14.32l.03.14-.14.02c-5.04.76-11.1,1.68-17.97,2.71l-.2.03v-.21c-.17-4.82-.35-10.2-.54-15.95v.05c-.58-2.11-1.05-4.31-1.4-6.6-.16-1.15-.33-2.3-.36-3.5-.02-1.2.06-2.4.18-3.61.51-4.83,1.44-9.8,2.51-14.92l.04.2c-1.07-1.4-2.24-2.94-3.43-4.5l.16.09c-1.44-.21-3.03-.44-4.64-.68l.25-.13c-.69,1.2-1.67,2.29-2.98,3.02-.66.34-1.37.62-2.18.63-.39,0-.89-.12-1.17-.53-.26-.4-.28-.83-.21-1.26v-.03s.02-.04.02-.04c.93-1.79,1.95-3.75,2.97-5.72l.06-.11.12-.02c2.7-.51,5.63-1.06,8.58-1.61l.1-.02.08.05c2.04,1.21,4.23,2.51,6.44,3.82l-.37.33c-1.09-2.31-2.26-4.79-3.43-7.29l.25.15h-.13c-2.22.11-4.43.22-6.63.32l.15-.06c-1.04.79-2.16,1.55-3.49,1.87-.65.17-1.37.19-2.04-.02-.67-.23-1.25-.65-1.62-1.29l-.08-.14.11-.14c1.55-1.95,3.09-3.88,4.61-5.79l.07-.08h.11c3.12-.3,6.19-.58,9.22-.86l-.11.47c-.94-.54-1.95-1.02-2.98-1.26-.26-.06-.52-.1-.77-.11-.24-.01-.5.03-.79.05-.55.06-1.1.12-1.66.11-1.1,0-2.26-.06-3.28-.68-.5-.31-.9-.84-1.01-1.43-.11-.59-.02-1.17.2-1.72l.04-.09.1-.04c1.39-.46,2.77-.88,4.15-1.26,1.39-.37,2.76-.73,4.19-.88.75-.07,1.47.08,2.14.27.68.19,1.34.44,1.97.72,1.27.56,2.47,1.21,3.62,1.93l-.32.31c-.44-.95-.56-1.87-.67-2.81-.1-.94-.12-1.87-.1-2.79.02-.92.08-1.85.32-2.75.22-.89.74-1.82,1.64-2.23.43-.21.9-.32,1.35-.34.22-.03.47,0,.71.02.23.07.49.13.68.3.41.29.65.73.8,1.15.16.43.24.86.31,1.29.25,1.72.11,3.4.56,4.96,1.73,6.31,3.31,12.11,4.73,17.31v-.02c.47,1.19.88,2.37,1.2,3.55.16.59.3,1.18.38,1.77.09.6.07,1.2.08,1.76.07,2.28,0,4.47-.45,6.43-.4,1.98-1.22,3.68-1.67,5.31-.47,1.63-.79,3.15-1.07,4.52-.54,2.73-.86,4.86-1.08,6.29-.1.71-.18,1.25-.24,1.63-.05.37-.09.55-.09.55,0,0,0-.19.04-.56.05-.39.11-.93.19-1.64.19-1.44.48-3.57.99-6.31.26-1.37.57-2.89,1.03-4.54.45-1.66,1.24-3.35,1.63-5.31.44-1.95.49-4.09.41-6.37-.01-.58,0-1.15-.09-1.72-.09-.57-.22-1.15-.38-1.73-.32-1.16-.73-2.33-1.21-3.5h0s0-.02,0-.02c-1.44-5.2-3.05-11-4.8-17.31-.47-1.61-.32-3.33-.58-4.98-.14-.8-.32-1.71-.94-2.15-.3-.23-.68-.27-1.1-.23-.42.03-.83.12-1.19.3-.75.35-1.19,1.12-1.4,1.95-.22.84-.28,1.74-.3,2.64-.02.91,0,1.82.1,2.73.1.89.25,1.86.61,2.63l.34.72-.66-.41c-1.12-.7-2.32-1.35-3.56-1.89-1.23-.53-2.57-1.03-3.88-.95-1.36.14-2.73.5-4.1.87-1.37.38-2.75.8-4.12,1.26l.14-.13c-.18.43-.26.96-.16,1.41.09.47.38.86.79,1.11.84.52,1.95.6,3,.59.53,0,1.07-.05,1.61-.11.26-.02.55-.07.86-.06.3,0,.59.06.87.12,1.12.27,2.14.76,3.13,1.32l.7.39-.8.08c-3.03.28-6.1.57-9.22.86l.18-.1c-1.52,1.91-3.06,3.84-4.61,5.79l.03-.28c.28.46.78.85,1.32,1.03.55.18,1.17.16,1.76,0,1.19-.28,2.28-1,3.28-1.77l.07-.05h.08c2.19-.11,4.4-.21,6.63-.32h.13s.17-.01.17-.01l.07.16c1.18,2.5,2.34,4.98,3.43,7.29l.36.77-.73-.43c-2.21-1.31-4.41-2.61-6.44-3.82l.18.03c-2.95.55-5.87,1.1-8.58,1.61l.18-.13c-1.03,1.97-2.05,3.93-2.98,5.72l.02-.06c-.05.29-.02.65.13.86.15.22.44.31.76.31.65,0,1.34-.26,1.93-.57,1.2-.65,2.15-1.71,2.78-2.81l.09-.15.17.02c1.6.24,3.2.47,4.64.68h.1s.06.09.06.09c1.19,1.56,2.37,3.11,3.43,4.51l.07.09-.02.11c-1.07,5.1-2.02,10.07-2.53,14.86-.13,1.2-.21,2.39-.19,3.55.03,1.16.19,2.32.35,3.45.34,2.27.8,4.46,1.37,6.55v.03s0,.02,0,.02c.17,5.75.34,11.13.48,15.95l-.21-.17c6.87-1,12.94-1.89,17.98-2.62l-.11.16c-1.22-6.2-2.17-11.05-2.82-14.37-.31-1.64-.55-2.9-.72-3.76-.07-.41-.13-.73-.17-.96-.04-.21-.05-.32-.05-.32h0Z"/><path class="cls-14" d="m176.89,166.59s.25-.1.73-.17c.47-.07,1.16-.15,2.03-.11.85.04,1.95.22,2.91.96.5.39.81.93,1.12,1.46.31.54.59,1.11.89,1.68.56,1.12,1.39,2.06,2.04,2.97.68.9,1.27,1.73,1.7,2.48.43.74.7,1.42.72,1.93.02.52-.23.74-.23.72-.05-.03.11-.26.03-.7-.07-.44-.37-1.05-.83-1.75-.46-.7-1.07-1.5-1.76-2.38-.67-.9-1.52-1.81-2.13-3.02-.61-1.13-1.09-2.34-1.85-3.01-.82-.67-1.82-.88-2.64-.97-1.66-.13-2.73.01-2.73-.08h0Z"/><path class="cls-14" d="m190.59,170.27c-.11.04-.85-2.32-2.82-4.54-.94-1.14-2.12-1.75-2.97-2.29-.85-.53-1.24-1.05-1.19-1.1.06-.05.5.35,1.37.78.43.23.96.48,1.53.83.58.35,1.14.85,1.64,1.43,1.02,1.15,1.69,2.38,2.06,3.31.37.93.44,1.56.37,1.57h0Z"/><path class="cls-14" d="m186.07,186.97c-.06-.04.15-.41.06-1.07-.08-.66-.28-1.59-.66-2.54-.76-1.93-2-3.15-1.89-3.26.07-.12,1.56,1,2.37,3.06.41,1.02.55,2,.55,2.73,0,.76-.39,1.14-.43,1.08h0Z"/><path class="cls-4" d="m130.15,295.92c-4.85-3.64-7.52-9.59-8.45-15.58-.89-5.76-.34-11.62.27-17.42.1,1.65.23,3.27.39,4.85.04.37.07.73.11,1.1.17,2.11.46,4.21.85,6.3.54,3.24,1.21,6.2,1.98,8.82,1.32,4.51,2.81,8.04,4.08,10.34.14.3.29.57.43.83.11.25.22.51.34.76"/><path class="cls-18" d="m129.81,295.16c-.14-.26-.28-.53-.43-.83-1.26-2.3-2.76-5.83-4.08-10.34-.77-2.62-1.44-5.59-1.98-8.82,1.3,6.93,3.72,13.69,6.48,19.99m-7.33-26.3c-.04-.36-.07-.73-.11-1.1-.16-1.57-.29-3.19-.39-4.85.03-.24.05-.47.07-.7l.28,1.22c-.05,1.81,0,3.62.15,5.43"/></g></svg>