<svg xmlns="http://www.w3.org/2000/svg" width="256" height="256"><path fill="#1976D2" fill-opacity=".016" fill-rule="evenodd" d="M0 128.004v128.004l128.25-.254 128.25-.254.254-127.75L257.008 0H0zm.485.496c0 70.4.119 99.053.265 63.672s.146-92.98 0-128S.485 58.1.485 128.5"/><path fill="#1976D2" fill-opacity=".175" fill-rule="evenodd" d="M74.5 64.89c-4.841 2.234-7.888 5.4-9.952 10.342-1.327 3.176-1.545 10.732-1.526 52.986.02 45.774.153 49.567 1.868 53.282 2.234 4.841 5.4 7.888 10.342 9.952 3.176 1.327 10.732 1.545 52.986 1.526 45.774-.02 49.567-.153 53.282-1.868 4.841-2.234 7.888-5.4 9.952-10.342 2.32-5.551 2.32-99.985 0-105.536-2.064-4.942-5.111-8.108-9.952-10.342-3.718-1.716-7.486-1.846-53.5-1.846s-49.782.13-53.5 1.846m38.873 5.089c-11.402 2.989-18.972 7.383-27.407 15.907-8.656 8.749-13.119 16.482-15.991 27.71-3.608 14.109-1.735 29.45 5.217 42.718 4.25 8.112 16.382 20.244 24.494 24.494 13.268 6.952 28.609 8.825 42.718 5.217 11.296-2.89 18.968-7.329 27.63-15.991s13.101-16.334 15.991-27.63c3.608-14.109 1.735-29.45-5.217-42.718-4.25-8.112-16.382-20.244-24.494-24.494-13.17-6.9-29.121-8.837-42.941-5.213m-4.037 6.589c-1.15 2.995.51 12.215 3.578 19.877 1.697 4.238 3.086 9.07 3.086 10.738 0 2.478.319 2.907 1.75 2.353 9.828-3.808 22.955-1.079 27.751 5.769 1.446 2.064 1.499 2.006 1.499-1.622 0-4.577-3.028-10.816-6.286-12.951-1.32-.865-4.906-2.036-7.969-2.602-12.072-2.232-14.958-4.743-16.891-14.701-.634-3.261-1.59-6.491-2.125-7.179-1.349-1.732-3.671-1.564-4.393.318m15.587 4.355c-1.608 1.608-2.923 3.828-2.923 4.935 0 8.936 10.648 13.219 15.988 6.43 2.737-3.48 2.529-7.52-.577-11.211-3.529-4.194-8.388-4.254-12.488-.154m-27.85 5.712c-2.75 3.495-2.618 6.911.382 9.91 3.136 3.137 7.489 3.208 10.343.17 1.933-2.057 2.032-2.681.993-6.25-1.602-5.503-2.546-6.465-6.341-6.465-2.379 0-3.885.738-5.377 2.635M148 86c-2.785 2.785-2.632 8.057.314 10.826C153.153 101.371 161 97.99 161 91.36c0-6.284-8.55-9.81-13-5.36m-51.851 17.528c-2.681 2.256-4.781 6.423-6.661 13.222-.573 2.07-.293 2.25 3.494 2.25 4.572 0 9.461 2.105 10.365 4.463.952 2.48 2.161 1.787 3.541-2.029.709-1.962 2.631-5.094 4.271-6.962 3.92-4.465 3.579-8.076-1.057-11.19-4.641-3.117-10.07-3.021-13.953.246m51.659-1.539c-1.493.923-1.535 1.425-.36 4.278.732 1.778 1.652 6.497 2.044 10.487.705 7.18 1.949 9.867 3.136 6.772.928-2.418 5.773-4.526 10.402-4.526h4.129l-.681-3.25c-.997-4.759-3.902-11.043-5.849-12.65-2.138-1.765-10.577-2.497-12.821-1.111m-29.679 9.634c-7.068 3.522-10.201 8.32-10.837 16.597-.269 3.507.013 7.554.639 9.165 1.102 2.833 1.222 2.872 6.8 2.217 4.721-.555 6.148-1.21 8.468-3.885 1.534-1.769 2.519-2.43 2.188-1.467-.745 2.171.719 2.231 4.913.202 2.938-1.422 3.036-1.419 1.2.043-2.396 1.906-2.601 3.755-.521 4.685 1.262.564 1.223.691-.229.75-.963.038-1.75.463-1.75.943s-2.138 1.142-4.75 1.472c-2.612.329-6.546.956-8.741 1.392l-3.991.794 3.861 2.945c3.1 2.364 5.099 3.023 10.142 3.344 10.505.669 17.934-3.21 21.599-11.279 2.787-6.134 2.517-7.506-1.37-6.952-1.787.256-7.75-.176-13.25-.959s-8.875-1.524-7.5-1.645c2.371-.21 2.346-.261-.5-.985l-3-.763 3-.2 3-.199-3-1.462-3-1.462 3 .569 3 .568-2.5-2.086-2.5-2.085 3.2 1.56c4.296 2.094 7.014 2.125 5.3.06-.773-.931-.845-1.5-.191-1.5.58 0 2.016 1.35 3.191 3 1.999 2.807 2.554 3 8.648 3h6.511l-.671-3.25C146.706 116.115 137.45 109 128 109c-2.968 0-6.481.934-9.871 2.623m-31.747 10.286c-3.517 2.145-4.838 5.76-3.444 9.427.668 1.758 2.563 3.082 6.539 4.569 3.079 1.152 6.064 2.095 6.634 2.095s.886.787.704 1.75c-.433 2.282-5.087 2.832-6.773.801-1.444-1.741-8.042-2.139-8.042-.485 0 6.156 10.917 10.097 17.928 6.471 3.134-1.62 4.072-3.34 4.072-7.464 0-3.606-2.471-5.727-8.896-7.635-3.933-1.168-5.149-1.972-4.906-3.245.47-2.468 4.119-2.605 6.262-.237 2.127 2.351 6.344 2.718 7.148.622 1.423-3.708-4.72-8.581-10.808-8.574-1.815.002-4.703.859-6.418 1.905m70.86-.415c-5.786 2.515-6.607 10.238-1.375 12.931 1.448.746 4.564 1.932 6.924 2.636 2.983.89 4.199 1.761 3.991 2.859-.403 2.128-5.13 2.57-6.74.631-1.444-1.741-8.042-2.139-8.042-.485 0 6.156 10.917 10.097 17.928 6.471 3.134-1.62 4.072-3.34 4.072-7.464 0-3.606-2.471-5.727-8.896-7.635-3.933-1.168-5.149-1.972-4.906-3.245.47-2.468 4.119-2.605 6.262-.237 2.127 2.351 6.344 2.718 7.148.622 1.37-3.568-4.726-8.617-10.308-8.539-1.54.022-4.266.676-6.058 1.455m-25.429 15.189c.721.289 1.584.253 1.916-.079s-.258-.568-1.312-.525c-1.165.048-1.402.285-.604.604M86 159.632v6.631l4.144-.556c4.919-.659 5.869-1.882 5.369-6.909-.519-5.217-1.077-5.798-5.572-5.798H86zm14.202-.461c.185 3.82.774 6.327 1.548 6.583.784.259 1.25-.551 1.25-2.171 0-3.393 3.704-3.689 4.18-.333.176 1.238.995 2.25 1.82 2.25 1.142 0 1.571-1.493 1.798-6.25.273-5.729.127-6.25-1.75-6.25-1.498 0-2.048.648-2.048 2.412 0 3.098-3.357 2.876-3.82-.253-.175-1.187-.984-2.159-1.797-2.159-1.177 0-1.418 1.259-1.181 6.171m16.296-.165c-1.97 6.506-1.558 8.263 1.325 5.655 2.281-2.065 3.062-2.075 5.285-.063 3.184 2.882 3.859.692 1.729-5.613-1.668-4.941-2.413-5.985-4.27-5.985-1.882 0-2.548.983-4.069 6.006m14.113-1.133c-.676 5.095-.083 8.127 1.59 8.127.542 0 1.237-.957 1.542-2.127.554-2.119.564-2.118 2.353.25 1.348 1.784 2.082 2.092 2.943 1.234.854-.851.859-1.679.018-3.25-.745-1.393-.776-2.107-.092-2.107.569 0 1.035-1.302 1.035-2.893 0-3.125-1.424-4.107-5.953-4.107-2.582 0-2.837.362-3.436 4.873m15.438.725c-1.565 4.184-1.84 6.006-1.026 6.808.807.794 1.466.615 2.405-.656.711-.963 1.868-1.75 2.572-1.75s1.861.787 2.572 1.75c.98 1.326 1.577 1.47 2.466.595 1.801-1.775-2.16-11.747-4.827-12.152-1.643-.25-2.427.77-4.162 5.405M159 153.95c0 .523.644 1.311 1.43 1.751.82.459 1.567 2.723 1.75 5.3.227 3.19.756 4.499 1.82 4.499 1.08 0 1.585-1.33 1.805-4.75.214-3.335.735-4.75 1.75-4.75.795 0 1.445-.675 1.445-1.5 0-1.133-1.222-1.5-5-1.5-2.75 0-5 .428-5 .95M89 157c0 .55.423 1 .941 1s1.219-.45 1.559-1-.084-1-.941-1-1.559.45-1.559 1m45 0c0 .55.675 1 1.5 1s1.5-.45 1.5-1-.675-1-1.5-1-1.5.45-1.5 1m-44.187 4.683c.721.289 1.584.253 1.916-.079s-.258-.568-1.312-.525c-1.165.048-1.402.285-.604.604"/><path fill="#1976D2" fill-opacity=".217" fill-rule="evenodd" d="M77.764 63.977c-5.051 1.555-9.322 4.893-11.802 9.224L63.5 77.5v101l2.489 4.348c1.534 2.679 4.222 5.366 7 7L77.5 192.5h101l4.511-2.652c2.778-1.634 5.466-4.321 7-7l2.489-4.348v-101l-2.513-4.487a18.1 18.1 0 0 0-7-7L178.5 63.5l-49-.182c-26.95-.101-50.231.196-51.736.659M113 69.511c-21.162 5.76-38.177 22.953-43.491 43.949-1.939 7.658-1.933 21.461.013 29.08 3.674 14.394 12.587 27.044 24.816 35.224 10.341 6.916 17.785 9.333 30.674 9.961 12.022.586 19.659-.888 29.488-5.69 13.722-6.705 25.656-20.26 30.404-34.535 4.827-14.515 3.655-33.066-2.919-46.208-6.686-13.366-20.187-25.362-34.049-30.254-8.405-2.966-26.71-3.766-34.936-1.527m7.871 41.054c-10.037 3.09-16.572 16.201-12.896 25.87.883 2.321 1.495 2.565 6.432 2.565 4.922 0 5.666-.294 7.593-3 2.22-3.118 4.642-4.117 3.638-1.5-.51 1.33-.164 1.329 3.047-.013 3.741-1.563 5.881-1.151 3.286.633-1.117.768-.93.859.779.378 1.249-.351 2.25-.19 2.25.361 0 .547-.787 1.2-1.75 1.452-1.659.433-1.659.463.008.573 1.505.099 1.578.405.51 2.116-.687 1.1-2.153 1.997-3.259 1.993-4.981-.016-17.527 2.454-17.215 3.389.775 2.326 9.077 5.618 14.167 5.618 10.108 0 18.722-6.678 20.935-16.231.579-2.499.441-2.662-1.632-1.926-1.317.468-7.075.123-13.764-.824-6.325-.895-10.6-1.889-9.5-2.207 1.846-.535 1.827-.589-.25-.696-2.664-.137-3.001-1.773-.5-2.427 1.667-.435 1.667-.463 0-.573-.963-.064-1.75-.596-1.75-1.183 0-.639.903-.799 2.25-.397 2.225.663 2.228.652.25-1.007-1.963-1.646-1.953-1.665.5-1.022 6.889 1.804 7.057 1.805 6.369.013-.587-1.531-.424-1.571 1.497-.371 1.186.74 2.391 2.086 2.678 2.991.637 2.007 3.443 2.828 9.725 2.846 4.698.014 4.759-.027 4.112-2.736-1.703-7.123-6.95-12.748-13.785-14.777-5.966-1.772-7.71-1.76-13.725.092M89.5 120.686c-3.562.915-6.5 4.456-6.5 7.833 0 4.023 2.27 6.075 8.896 8.043 3.932 1.167 5.149 1.972 4.908 3.245-.423 2.228-5.103 2.743-6.762.744-1.592-1.918-8.042-2.109-8.042-.238 0 .722 1.38 2.635 3.066 4.25 2.611 2.502 3.858 2.937 8.419 2.937 4.29 0 5.867-.482 7.934-2.424 5.209-4.893 2.455-11.072-5.87-13.168-4.738-1.193-7.151-3.125-6.076-4.864.994-1.608 6.508-1.257 7.165.456.643 1.675 7.362 2.146 7.362.516 0-.542-1.237-2.322-2.75-3.957-2.778-3.002-7.699-4.415-11.75-3.373m69.521.398c-4.117 1.696-6.021 4.042-6.021 7.416 0 4.044 2.259 6.091 8.896 8.062 3.932 1.167 5.149 1.972 4.908 3.245-.423 2.228-5.103 2.743-6.762.744-1.592-1.918-8.042-2.109-8.042-.238 0 .722 1.38 2.635 3.066 4.25 2.611 2.502 3.858 2.937 8.419 2.937 4.29 0 5.867-.482 7.934-2.424 5.209-4.893 2.455-11.072-5.87-13.168-4.738-1.193-7.151-3.125-6.076-4.864.994-1.608 6.508-1.257 7.165.456.643 1.675 7.362 2.146 7.362.516 0-.542-1.238-2.322-2.75-3.957-3.074-3.322-8.302-4.594-12.229-2.975M86 159v6h3.878c4.387 0 7.055-2.171 5.286-4.302-.594-.716-.81-2.337-.479-3.602.731-2.796-.952-4.06-5.435-4.081L86 153zm14 0c0 4.667.333 6 1.5 6 .933 0 1.5-.944 1.5-2.5 0-1.833.533-2.5 2-2.5 1.482 0 2 .667 2 2.573 0 1.913.449 2.487 1.75 2.237.963-.186 1.705-.894 1.65-1.574s-.167-3.298-.25-5.819c-.104-3.172-.535-4.457-1.4-4.172-.687.226-1.394 1.389-1.57 2.583-.474 3.228-4.18 2.937-4.18-.328 0-1.556-.567-2.5-1.5-2.5-1.167 0-1.5 1.333-1.5 6m18.321-4.25c-.339.963-1.225 3.267-1.969 5.122-1.724 4.299-1.7 5.128.148 5.128.825 0 1.5-.45 1.5-1s1.125-1 2.5-1 2.5.45 2.5 1 .724 1 1.608 1c1.248 0 1.457-.605.933-2.695-2.048-8.158-5.672-11.951-7.22-7.555M131 158.94c0 4.72.332 6.06 1.5 6.06.869 0 1.528-.947 1.568-2.25l.067-2.25 1.085 2.25c.597 1.238 1.933 2.25 2.968 2.25 1.565 0 1.704-.333.824-1.977-.771-1.441-.715-2.526.208-4.003 1.854-2.969-.091-5.449-4.571-5.83l-3.649-.311zm15.24.06c-2.12 5.891-2.123 6-.199 6 1.077 0 1.959-.45 1.959-1 0-1.369 2.615-1.257 4.968.212 3.029 1.892 3.251.539.915-5.567-2.896-7.568-4.825-7.478-7.643.355m13.76-4.5c0 .825.675 1.5 1.5 1.5 1.111 0 1.5 1.167 1.5 4.5s.389 4.5 1.5 4.5 1.5-1.167 1.5-4.5.389-4.5 1.5-4.5c.825 0 1.5-.675 1.5-1.5 0-1.111-1.167-1.5-4.5-1.5s-4.5.389-4.5 1.5M89 157c0 .55.675 1 1.5 1s1.5-.45 1.5-1-.675-1-1.5-1-1.5.45-1.5 1m45.192.075c.197.591.786 1.075 1.308 1.075s1.111-.484 1.308-1.075S136.417 156 135.5 156s-1.505.484-1.308 1.075M120 159.559c0 .857.457 1.276 1.016.931.559-.346.758-1.047.441-1.559-.857-1.387-1.457-1.129-1.457.628m29-.059c0 .825.45 1.5 1 1.5s1-.675 1-1.5-.45-1.5-1-1.5-1 .675-1 1.5m-60 2c0 .825.675 1.5 1.5 1.5s1.5-.675 1.5-1.5-.675-1.5-1.5-1.5-1.5.675-1.5 1.5"/><path fill="#1976D2" fill-opacity=".716" fill-rule="evenodd" d="M74.5 65.665c-4.409 2.33-6.487 4.393-8.606 8.545C64.111 77.703 64 80.822 64 127.492c0 42.348.224 50.109 1.538 53.254 1.985 4.75 4.089 7.021 8.672 9.36 3.495 1.784 6.621 1.894 53.782 1.894 40.293 0 50.701-.269 53.29-1.377 3.892-1.665 8.207-6.107 9.654-9.938.7-1.852 1.064-19.91 1.064-52.782 0-40.204-.269-50.596-1.377-53.185-1.665-3.892-6.107-8.207-9.938-9.654-1.858-.702-19.877-1.05-53-1.024-43.827.035-50.565.241-53.185 1.625m43.747 2.383c-13.792 2.459-24.327 8.186-34.268 18.628-8.138 8.547-13.362 18.595-15.513 29.837-1.861 9.727-1.843 13.726.107 23.279 2.571 12.598 7.403 21.431 16.811 30.73 12.935 12.786 25.704 18.013 43.616 17.855 15.427-.137 28.5-5.39 40.072-16.104 7.292-6.751 13.146-15.934 16.572-25.995 2.197-6.453 2.651-9.567 2.661-18.278.011-9.077-.39-11.658-2.956-19.044-1.633-4.699-4.659-11.091-6.726-14.204-4.37-6.584-13.441-15.283-19.859-19.044-11.036-6.468-28.592-9.787-40.517-7.66m1.898 43.022c-8.016 3.211-12.145 9.605-12.145 18.808 0 8.55.377 9.122 6.012 9.122h4.798l-.541-5.965c-.661-7.29.896-11.552 4.993-13.671 4.24-2.192 9.015-1.049 12.193 2.92a567 567 0 0 0 3.651 4.521c.628.762 2.597 1.178 4.735 1 3.353-.28 3.642-.546 3.452-3.191-.319-4.454-4.65-10.124-9.543-12.493-4.676-2.264-13.293-2.778-17.605-1.051m-33.128 11.159c-3.237 1.712-4.735 5.901-3.264 9.128.771 1.693 2.734 2.962 6.429 4.158 2.925.946 5.993 2.37 6.818 3.164 1.33 1.28 1.28 1.606-.441 2.882-2.624 1.945-4.187 1.811-6.559-.561-2.649-2.649-7-2.694-7-.073 0 3.349 4.671 6.073 10.412 6.073 5.891 0 9.062-1.766 10.019-5.583 1.019-4.06-1.56-6.96-8.141-9.153-6.269-2.09-7.809-4.381-4.23-6.296 1.81-.969 2.661-.811 5.019.933 5.421 4.007 9.041 1.938 5.107-2.919-2.23-2.755-10.371-3.762-14.169-1.753m70 0c-3.237 1.712-4.735 5.901-3.264 9.128.771 1.693 2.734 2.962 6.429 4.158 2.925.946 5.993 2.37 6.818 3.164 1.33 1.28 1.28 1.606-.441 2.882-2.624 1.945-4.187 1.811-6.559-.561-2.649-2.649-7-2.694-7-.073 0 5.87 13.634 8.53 18.545 3.618 4.738-4.737 2.256-9.435-6.545-12.388-5.982-2.008-7.449-4.311-3.94-6.189 1.81-.969 2.661-.811 5.019.933 5.421 4.007 9.041 1.938 5.107-2.919-2.23-2.755-10.371-3.762-14.169-1.753m-20.389 14.425c-.878 1.84-2.079 3.346-2.671 3.346s-.829.398-.528.885c.301.486-2.413 1.202-6.029 1.589s-8.387 1.228-10.599 1.869l-4.022 1.164 4.36 2.468c5.674 3.212 14.558 3.441 20.297.525 4.685-2.381 9.285-7.844 10.108-12.004.593-2.996.592-2.996-4.364-3.092-4.674-.09-5.048.095-6.552 3.25M86 159.5v5.615l4.25-.308 4.25-.307v-10l-4.25-.307-4.25-.308zm14.12 0c-.178 4.399.088 5.5 1.329 5.5.988 0 1.551-.908 1.551-2.5 0-2 .5-2.5 2.5-2.5s2.5.5 2.5 2.5c0 1.375.45 2.5 1 2.5s1-2.475 1-5.5-.45-5.5-1-5.5-1 .9-1 2c0 1.467-.667 2-2.5 2s-2.5-.533-2.5-2c0-1.1-.598-2-1.329-2-.917 0-1.398 1.704-1.551 5.5m17.398-1.299c-.955 2.365-1.961 4.862-2.235 5.549s.226 1.25 1.11 1.25 1.607-.45 1.607-1c0-1.393 4.345-1.255 5.783.183 2.126 2.126 2.317.181.471-4.79-2.368-6.379-4.487-6.754-6.736-1.192M131 159.5c0 4.222.348 5.5 1.5 5.5.873 0 1.522-.94 1.552-2.25l.053-2.25 1.569 2.25c.864 1.238 2.245 2.25 3.07 2.25 1.234 0 1.275-.272.231-1.53-.968-1.166-1.003-2.112-.149-3.988 1.73-3.796.52-5.482-3.933-5.482H131zm15.58-.451c-1.829 5.086-1.552 7.323.637 5.134 1.514-1.514 5.499-1.536 6-.033.211.632.867.97 1.458.75.702-.261.378-2.224-.934-5.65-2.633-6.88-4.739-6.939-7.161-.201m14.67-4.36c1.373.359 1.75 1.537 1.75 5.468 0 3.567.36 4.888 1.25 4.585.809-.274 1.131-1.891.914-4.583-.29-3.585-.013-4.289 2-5.096 1.903-.763 1.408-.926-2.664-.884-2.75.029-4.213.259-3.25.51m-72.754 1.318c-.76 1.229 1.992 2.427 3.472 1.513.586-.362.806-1.077.489-1.589-.763-1.235-3.18-1.189-3.961.076M133.5 156c-.837 1.354.292 3 2.059 3 .793 0 1.441-.9 1.441-2 0-2.07-2.413-2.76-3.5-1m-13.895 2.588c-.855 2.228-.787 2.412.895 2.412.825 0 1.5-.648 1.5-1.441 0-2.116-1.693-2.802-2.395-.971M149 159c0 1.1.45 2 1 2s1-.9 1-2-.45-2-1-2-1 .9-1 2m-60 2.5c0 1.03.655 1.52 1.75 1.31 2.108-.406 1.975-2.181-.197-2.633-.906-.189-1.553.362-1.553 1.323"/></svg>