<svg xmlns="http://www.w3.org/2000/svg" width="256" height="256"><path fill="#1976D2" fill-opacity=".165" fill-rule="evenodd" d="M0 128.004v128.004l128.25-.254 128.25-.254.254-127.75L257.008 0H0zm.485.496c0 70.4.119 99.053.265 63.672s.146-92.98 0-128S.485 58.1.485 128.5"/><path fill="#1976D2" fill-opacity=".178" fill-rule="evenodd" d="M0 127.511v126.497l128.25-.254 128.25-.254.254-126.5.254-126.5-128.504.258L0 1.015zm.485-.011c0 69.85.119 98.278.265 63.172.146-35.105.146-92.255 0-127C.604 28.928.485 57.65.485 127.5M65.991 7.087c-3.581.468-8.306 1.475-10.5 2.237-3.475 1.206 5.775 1.406 71.509 1.545 50.574.107 75.005-.17 74-.839-.825-.55-1.05-1.052-.5-1.117s-.575-.579-2.5-1.142C193.626 6.49 75.249 5.877 65.991 7.087M121 14.943c-10.621 1.274-29.535 9.189-27.299 11.424.348.348-.087.633-.967.633s-1.86.82-2.178 1.822-2.642 3.365-5.165 5.25c-2.523 1.886-5.229 4.665-6.015 6.178S77.51 43 76.974 43 76 43.597 76 44.326s-1.111 2.369-2.469 3.645-2.265 2.65-2.016 3.054-.704 1.891-2.119 3.306c-1.51 1.51-2.266 3.07-1.83 3.776.471.762.32.941-.411.488-.685-.422-1.155-.078-1.155.846 0 .857-.477 1.559-1.059 1.559s-.779.453-.437 1.007c.343.554-.025 1.256-.816 1.559-.791.304-1.438 1.702-1.438 3.107s-.514 2.872-1.143 3.261c-1.399.864-3.128 6.187-3.758 11.566-.838 7.155-.979 7.653-2.423 8.567-1.232.779-1.23.904.011.918.982.01.624.887-1.128 2.765-2.641 2.832-4.843 6.498-4.765 7.934.025.449.926-.854 2.004-2.894 5.264-9.968 18.474-14.2 31.89-10.216 9.362 2.78 12.944 9.37 7.748 14.252-2.715 2.55-6.054 2.754-11.032.674-5.342-2.232-11.328-1.978-12.674.538-1.962 3.666-.245 5.585 8.472 9.47 14.331 6.385 18.867 11.566 18.876 21.559.009 9.231-5.161 16.057-15.08 19.913-2.128.827-6.414 1.113-12.398.827-5.031-.24-8.292-.102-7.248.308 1.044.409 3.473.828 5.398.931 2.207.117 2.761.364 1.5.667-2.871.691-3.549 1.594-2.474 3.295q.944 1.494.959.242c.008-.687.451-1.25.984-1.25s.746.578.475 1.285c-.566 1.475 5.362 7.953 6.585 7.197.446-.275 1.321 1.048 1.946 2.941.856 2.596 1.86 3.602 4.08 4.089 1.62.356 2.945 1.236 2.945 1.956s1.599 1.609 3.553 1.976c1.953.366 3.784 1.27 4.067 2.008.283.737 2.509 1.64 4.947 2.006S99 184.545 99 185.061c0 .517 1.377.939 3.059.939 2.081 0 2.828.374 2.336 1.17-.486.787-.178.961.941.531.915-.351 1.664-.291 1.664.133 0 1.474 9.559 2.69 19.5 2.481 18.796-.395 26.621-2.487 47.381-12.667 3.033-1.487 4.827-3.2 5.835-5.569 1.118-2.632 1.662-3.094 2.354-2 .631.997.904 1.048.915.171.008-.687.635-1.25 1.393-1.25.757 0 1.995-.761 2.75-1.692 1.183-1.459 1.166-1.57-.128-.808s-1.311.651-.128-.808c.755-.931 1.068-1.692.695-1.692s.584-1.117 2.127-2.482c2.198-1.944 2.513-2.675 1.455-3.371-.938-.618.014-1.094 3.115-1.559 2.456-.369 5.314-1.303 6.351-2.077 1.62-1.209 1.323-1.209-2.115-.002-4.955 1.738-17.412 1.897-22.776.29-10.886-3.261-14.458-14.181-5.811-17.763 2.705-1.121 3.505-.943 8.41 1.863 8.665 4.958 16.677 3.549 16.677-2.933 0-3.407-1.863-4.854-10.282-7.984-11.86-4.409-18.203-11.587-18.075-20.454.136-9.403 6.202-16.839 15.857-19.44 8.165-2.199 19.432-.564 24.779 3.596 2.35 1.828 2.193 1.56-.58-.989-2.538-2.333-3.368-3.668-2.5-4.016 1.022-.409 1.007-.538-.071-.6-1.123-.065-1.14-.359-.093-1.621.916-1.104.973-1.85.201-2.622-.594-.594-.874-1.616-.623-2.271.252-.655-.41-1.976-1.469-2.935-1.153-1.043-1.723-2.524-1.419-3.687.28-1.069.048-1.943-.515-1.943-.562 0-.787-.9-.5-2s.051-2-.526-2-1.352-1.013-1.723-2.25-1.553-2.947-2.626-3.799c-1.77-1.403-2.543-3.27-2.758-6.656-.043-.662-1.202-2.329-2.577-3.704s-2.5-2.971-2.5-3.546S186.475 46 185.833 46c-.641 0-.914-.252-.606-.56s-.965-2.221-2.829-4.25c-1.863-2.03-3.391-4.087-3.393-4.573-.003-.485-1.017-1.746-2.255-2.801s-3.706-3.276-5.486-4.935-3.664-2.752-4.188-2.428-1.318-.063-1.765-.86c-.446-.798-2.899-2.345-5.451-3.439s-4.941-2.476-5.309-3.071S152.821 18 151.524 18c-1.296 0-2.508-.453-2.693-1.007-.595-1.786-18.828-3.129-27.831-2.05M32.437 23.25 29.5 26.5l3.25-2.937C35.779 20.825 36.46 20 35.687 20c-.172 0-1.635 1.462-3.25 3.25m-8.978 11.817c-.363.586-.445 1.281-.183 1.543s.743-.218 1.069-1.067c.676-1.762.1-2.072-.886-.476M17.232 57c0 1.925.206 2.712.457 1.75.252-.962.252-2.538 0-3.5-.251-.962-.457-.175-.457 1.75m223.847-1.417c.048 1.165.285 1.402.604.605.289-.722.253-1.585-.079-1.917s-.568.258-.525 1.312M241.078 100c-.531 53.481-1.495 81.819-2.828 83.151-.687.687-1.25 1.859-1.25 2.604 0 3.78-16.098 25.245-18.933 25.245-.513 0-1.215.891-1.561 1.98s-.948 1.876-1.338 1.75c-.391-.127-2.772 1.458-5.292 3.52s-5.275 3.75-6.122 3.75-1.777.618-2.067 1.373c-.29.756-3.768 2.106-7.73 3-6.204 1.402-15.12 1.623-64.33 1.598-64.614-.033-64.473-.019-77.336-7.805-9.087-5.501-13.749-10.079-25.122-24.666-.429-.55-1.821-3.25-3.093-6s-2.807-5.9-3.409-7c-1.261-2.304-2.435-32.373-2.573-65.917-.052-12.604-.311-22.699-.577-22.433-.265.265-.496 21.378-.512 46.916-.024 36.841.261 47.506 1.376 51.624C23.593 211.928 38.922 226.6 59 231.568c7.079 1.752 129.781 2.067 138.201.355 20.788-4.227 35.399-16.661 42.627-36.277 2.62-7.113 2.633-7.293 2.8-38.646.092-17.325-.158-43.425-.555-58l-.722-26.5zM122.266 88.499c-9.238 2.563-14.193 6.789-19.382 16.532-2.141 4.02-2.38 5.724-2.382 16.969-.002 10.604.317 13.19 2.104 17.051C107.688 150.034 116.893 156 128.76 156c13.323 0 22.517-5.682 27.822-17.192 2.649-5.748 2.907-7.284 2.912-17.308.005-9.76-.286-11.62-2.584-16.5-3.591-7.626-7.128-11.479-13.206-14.39-6.699-3.208-14.659-3.992-21.438-2.111M210 99.833c0 2.174-3.985 5.167-6.878 5.167-1.583 0-4.493-.675-6.468-1.5-4.656-1.946-10.098-1.913-12.083.071-3.534 3.535-1.994 5.333 8.859 10.343 4.911 2.268 10.536 5.31 12.5 6.761 1.963 1.452 3.04 2.061 2.393 1.355-.819-.894-.884-2.054-.214-3.816.529-1.393.877-3.249.773-4.123s.162-2.403.592-3.396c.431-.993.34-2.793-.201-4-.718-1.604-.581-2.809.508-4.476.819-1.255 1.204-2.567.854-2.917-.349-.349-.635-.11-.635.531m-85 2.873c-7.96 2.91-11.511 19.955-6.605 31.697 2.761 6.607 11.469 9.562 17.565 5.961 4.778-2.822 6.418-6.896 6.867-17.057.346-7.823.094-9.838-1.689-13.522-1.153-2.381-3.412-5.106-5.021-6.057-2.83-1.671-8.032-2.15-11.117-1.022M48.286 107.5c.008 2.75.202 3.756.432 2.236s.223-3.77-.014-5-.425.014-.418 2.764m.719 6.027c-.003.566.694 2.026 1.548 3.245 1.042 1.487 1.255 2.748.649 3.831-.541.967-.525 3.475.04 6.256.519 2.552.977 5.204 1.018 5.891.04.688.786 1.252 1.657 1.254.905.002.239.823-1.558 1.919-1.727 1.053-3.506 2.506-3.952 3.228-.446.721.465.308 2.026-.919 3.667-2.885 4.549-2.823 10.913.768 6.298 3.555 11.323 3.888 14.465.961 2.412-2.247 2.887-6.153.939-7.725-.687-.555-4.667-2.423-8.844-4.151-9.255-3.829-13.696-6.997-16.65-11.875-1.235-2.041-2.248-3.248-2.251-2.683M210.08 126c1.458 3.061 1.92 3.628 1.92 2.358 0-.537-.7-1.849-1.555-2.917-1.467-1.83-1.487-1.798-.365.559m2.192 9c0 2.475.195 3.488.434 2.25.238-1.238.238-3.262 0-4.5-.239-1.238-.434-.225-.434 2.25m-1.648 7.539c-.965 2.514-.681 3.163.498 1.136.584-1.004.851-2.036.593-2.293-.257-.258-.749.263-1.091 1.157M50 150.5c1.292 1.375 2.574 2.5 2.849 2.5s-.557-1.125-1.849-2.5-2.574-2.5-2.849-2.5.557 1.125 1.849 2.5m153.872 1.25c-1.243 1.586-1.208 1.621.378.378 1.666-1.307 2.195-2.128 1.372-2.128-.207 0-.995.787-1.75 1.75"/><path fill="#1976D2" fill-opacity=".269" fill-rule="evenodd" d="M57.324 4.971C33.745 11.218 17.307 30.175 13.511 55.5c-2.245 14.972-2.214 137.082.037 148.292C18.265 227.288 35.2 245.483 57 250.48c5.404 1.239 17.667 1.493 72.701 1.505q66.2.015 71.5-1.08c22.248-4.598 41.322-25.708 44.768-49.548.574-3.972 1-34.693 1.011-73.019.021-70.205-.142-73.096-4.885-86.66-5.614-16.049-19.585-29.473-37.353-35.889-6.216-2.245-6.523-2.256-73.242-2.487-63.082-.219-67.42-.121-74.176 1.669M59 7.556c-20.225 5.386-34.894 19.683-40.676 39.646L16 55.227l.015 64.636c.016 71.804.006 71.676 6.6 84.224 6.129 11.663 17.244 21.382 29.924 26.165 5.94 2.24 6.206 2.249 74.332 2.525 74.007.3 73.737.316 85.629-5.167 11.391-5.251 21.957-17.169 27.58-31.11l2.42-6 .283-67.2c.313-74.184.327-73.988-5.969-87.2-3.434-7.207-12.248-16.838-19.716-21.543-2.42-1.525-7.37-3.95-11-5.388L199.5 6.554 132 6.323c-56.64-.194-68.385.004-73 1.233m3.5 81.713c-8.468 3.474-12.868 9.705-12.873 18.231-.006 9.172 4.879 14.585 18.11 20.065C76.19 131.067 78 132.578 78 136.132c0 6.096-8.773 7.949-16.42 3.468-5.417-3.175-8.852-3.297-11.541-.411-4.617 4.955-1.307 11.445 7.521 14.748 13.898 5.2 29.195.527 34.826-10.637 3.259-6.461 1.213-18.043-3.951-22.367-.941-.788-6.262-3.683-11.823-6.433-9.414-4.655-10.112-5.204-10.112-7.962 0-2.149.714-3.362 2.603-4.422 2.354-1.322 3.299-1.237 9.897.884 6.583 2.117 7.546 2.204 9.884.892 5.888-3.305 4.971-10.286-1.779-13.539-4.534-2.186-20.234-2.877-24.605-1.084m56.527.468c-6.264 2.21-13.987 10.277-16.527 17.263-1.527 4.199-1.998 7.983-1.991 16 .008 9.177.333 11.194 2.583 16.006 4.952 10.593 12.866 16.024 24.408 16.751 18.132 1.141 30.664-11.02 32.212-31.257 1.631-21.324-10.621-36.595-29.212-36.411-3.85.038-9.013.779-11.473 1.648m60.61-.272c-10.705 3.816-15.786 16.442-10.66 26.491 2.42 4.742 5.789 7.218 15.672 11.515 8.806 3.83 11.351 5.731 11.351 8.48 0 6.014-10.425 8.163-17.215 3.549-4.879-3.315-9.036-3.267-11.712.135-2.828 3.594-2.61 5.684 1.021 9.819 3.66 4.169 10.527 6.546 18.909 6.546 18.112 0 29.618-14.228 23.104-28.571-2.357-5.19-7.856-9.717-15.087-12.421-9.327-3.489-12.199-5.618-11.834-8.775.212-1.833 1.244-3.162 3.171-4.081 2.516-1.201 3.62-1.113 9.271.742 7.919 2.6 8.472 2.602 11.737.033 5.361-4.216 2.039-11.609-6.251-13.912-5.123-1.423-16.916-1.176-21.477.45m-57.93 15.487c-3.968 3.485-5.709 8.572-5.701 16.664.007 8.165 1.636 13.226 5.497 17.087 2.865 2.865 3.964 3.297 8.381 3.297 7.098 0 10.526-3.225 12.719-11.964 2.62-10.439.39-21.537-5.213-25.944-4.186-3.293-11.404-2.897-15.683.86"/><path fill="#1976D2" fill-opacity=".508" fill-rule="evenodd" d="M64 89.175c-11.504 3.269-17.695 17.251-11.87 26.807 2.885 4.733 3.864 5.428 15.534 11.024 10.755 5.158 12.275 6.838 10.237 11.312-2.449 5.376-9.972 5.886-17.113 1.16-4.426-2.928-6.82-3.109-9.635-.728-8.271 6.999 2.522 16.799 18.406 16.711 13.194-.073 22.6-7.045 24.081-17.849 1.382-10.086-3.25-16.156-17.377-22.769C70.618 112.201 66 109.617 66 109.101s-.26-1.614-.577-2.442c-.318-.827.357-2.439 1.5-3.582 2.495-2.495 8.245-2.759 12.441-.571 3.925 2.047 8.965 1.893 10.981-.335 2.684-2.966 2.122-7.702-1.195-10.064-5.28-3.76-17.304-5.162-25.15-2.932m57.324.2c-12.09 3.967-18.08 11.724-20.35 26.356-2.005 12.924 1.862 26.406 9.499 33.111 5.537 4.861 10.077 6.457 18.527 6.511 12.565.081 22.28-5.903 27.188-16.746 2.007-4.432 2.31-6.692 2.301-17.107-.01-10.049-.352-12.74-2.106-16.551-2.931-6.369-7.611-11.366-13.032-13.914-5.833-2.742-16.32-3.532-22.027-1.66m59.43.224c-12.822 3.943-17.785 19.248-9.39 28.959 2.215 2.562 6.653 5.434 13.706 8.866 9.677 4.71 10.452 5.302 10.735 8.21.235 2.422-.308 3.616-2.385 5.25-3.699 2.91-7.809 2.652-14.074-.884-6.235-3.519-8.617-3.729-11.346-1-4.648 4.648-.635 12.564 7.579 14.951 11.452 3.327 22.264 1.76 29.066-4.212 4.539-3.986 6.355-8.199 6.355-14.747 0-9.752-4.539-14.839-18.318-20.533-9.7-4.007-12.543-8.429-7.851-12.209 2.106-1.697 8.04-1.566 11.533.256 3.729 1.945 9.08 1.908 11.065-.077 2.188-2.189 2-7.731-.334-9.843-4.736-4.286-17.435-5.726-26.341-2.987M124 102.698c-5.381 2.771-8.263 9.454-8.263 19.163 0 12.882 4.231 19.67 12.975 20.815 4.579.6 9.648-2.417 12.623-7.51 2.461-4.213 3.327-15.239 1.723-21.925-2.327-9.7-11.183-14.599-19.058-10.543m116.111 94.413c-.616 1.767-.945 3.388-.731 3.602s.893-1.057 1.509-2.824.945-3.388.731-3.602-.893 1.057-1.509 2.824m-222.08.389c0 .55.436 1.675.969 2.5s.969 1.05.969.5-.436-1.675-.969-2.5-.969-1.05-.969-.5m4.597 9.75c2.266 4.384 8.48 12.628 12.054 15.993 4.913 4.626 14.389 9.77 21.762 11.813C63.063 236.89 67.157 237 128.916 237c73.006 0 72.673.027 85.084-6.838 8.592-4.753 17.957-14.536 22.887-23.912 2.075-3.945.399-2.414-2.188 2-2.879 4.91-12.38 14.269-18.199 17.925-2.2 1.382-6.925 3.596-10.5 4.919l-6.5 2.406-66.122.29c-73.033.32-74.821.2-87.151-5.857-7.353-3.612-16.903-12.11-21.391-19.037-3.645-5.625-4.653-6.376-2.208-1.646"/></svg>