<svg xmlns="http://www.w3.org/2000/svg" width="256" height="256"><path fill="#1976D2" fill-opacity=".016" fill-rule="evenodd" d="M0 128.004v128.004l128.25-.254 128.25-.254.254-127.75L257.008 0H0zm.485.496c0 70.4.119 99.053.265 63.672s.146-92.98 0-128S.485 58.1.485 128.5"/><path fill="#1976D2" fill-opacity=".175" fill-rule="evenodd" d="M23.593 2.476C13.237 6.733 5.93 14.225 2.07 24.543-.016 30.118-.027 30.729.236 129.326L.5 228.5l2.66 5.675c3.725 7.946 9.87 14.222 17.697 18.075l6.601 3.25H229.5l6.252-3.39c7.719-4.186 13.655-10.485 16.899-17.935 1.359-3.121 2.894-6.456 3.41-7.411 1.062-1.964 1.343-199.501.282-198.44-.361.361-1.69-1.885-2.952-4.991-4.083-10.045-11.695-17.432-21.896-21.249C225.987.023 224.825 0 127.712.024L29.5.047zm82.564 8.081C70.868 17 38.84 40.748 22.135 72.857 13.028 90.362 9 107.273 9 128c0 21.035 4.106 37.975 13.54 55.869 17.434 33.066 50.846 56.857 87.317 62.174 11.733 1.711 36.353.707 46.143-1.881 23.819-6.296 41.467-16.586 58.092-33.873C236.045 187.461 247 160.068 247 128c0-33.898-12.51-63.079-37.091-86.518-16.936-16.149-36.123-26.057-59.194-30.569-11.604-2.268-33.14-2.441-44.558-.356M91.378 25.546c-3.668 5.598.186 25.719 8.302 43.335 2.799 6.077 3.62 9.289 4.056 15.869.3 4.537.623 8.25.717 8.25s2.027-.896 4.294-1.992c16.305-7.877 40.721-3.136 52.827 10.258l4.73 5.234-.593-7.244c-.765-9.337-4.574-17.953-10.249-23.184-4.538-4.183-6.844-5.019-20.805-7.54-15.024-2.712-24.746-8.465-27.842-16.476-.543-1.406-2.111-7.954-3.483-14.552-1.373-6.598-2.964-12.561-3.536-13.25-1.847-2.225-6.591-1.497-8.418 1.292M.481 128c0 54.725.121 77.112.269 49.75.148-27.363.148-72.138 0-99.5C.602 50.887.481 73.275.481 128m126.52-97.877c-9.025 3.599-12.886 15.301-8.127 24.63 7.029 13.779 28.103 11.187 32.181-3.958 1.989-7.387-1.066-14.864-7.977-19.521-3.665-2.47-11.383-3.022-16.077-1.151M71.209 41.668c-11.652 5.742-11.386 22.27.443 27.502 5.784 2.559 11.235 1.746 15.929-2.375 3.862-3.391 4.205-5.656 2.023-13.363-.768-2.713-1.684-6.199-2.035-7.748-1.15-5.059-9.89-7.205-16.36-4.016m101.241-.315c-10.194 4.621-12.331 18.155-4.019 25.453 4.929 4.327 10.365 5.004 16.347 2.037 10.909-5.413 11.859-19.609 1.755-26.229-3.536-2.318-10.397-2.932-14.083-1.261M72.5 74.929c-6.776 1.635-12.26 7.019-16.181 15.883-1.915 4.331-5.243 15.746-5.302 18.188-.006.275 3.475.531 7.736.569 8.99.08 14.057 2.173 19.061 7.872 3.985 4.538 5.729 4.492 7.244-.191 2.148-6.641 5.051-11.485 10.052-16.773 4.53-4.79 4.89-5.543 4.89-10.239 0-4.777-.267-5.303-4.646-9.158-6.655-5.858-14.888-8.074-22.854-6.151m98.189.451c-6.947 1.937-7.181 2.454-4.177 9.223 2.673 6.023 4.466 17.056 4.48 27.565.014 10.053 1.843 11.234 7.574 4.89 4.617-5.11 11.013-7.556 19.76-7.557l6.826-.001-.664-4.431c-2.06-13.734-8.034-25.097-14.757-28.068-5.875-2.596-13.285-3.227-19.042-1.621m-53.943 16.644c-10.785 2.719-21.415 11.356-26.058 21.17-3.366 7.115-4.885 17.381-3.745 25.306 1.415 9.832 2.053 11.461 4.755 12.139 2.55.64 18.352-.337 20.829-1.288.764-.293 2.547-2.509 3.963-4.924 2.401-4.096 6.058-7.213 7.165-6.105.266.266-.093 1.407-.798 2.535s-1.018 2.315-.697 2.637c.597.597 5.385-.939 12.09-3.877 5.366-2.352 4.702-.054-.75 2.595-5.843 2.839-5.761 3.972.159 2.19 2.562-.771 5.514-1.402 6.559-1.402 3.404 0 1.009 1.615-5.17 3.486-3.327 1.007-6.048 2.201-6.048 2.653 0 .739 7.659.252 10.718-.68.67-.205 1.469.034 1.775.529.306.496-2.154 1.435-5.468 2.087-7.012 1.379-7.873 2.866-1.775 3.062 3.839.123 3.67.212-1.75.916-10.821 1.406-18.871 2.74-27.272 4.519l-8.272 1.752 2.252 2.397c1.238 1.318 5.462 3.984 9.386 5.923 16.403 8.107 37.193 4.676 49.311-8.137 5.837-6.172 8.611-11.334 10.544-19.621.793-3.397 1.916-6.651 2.496-7.231 1.204-1.204 1.446-6.655.295-6.655-.417 0-.755 1.438-.75 3.194.008 2.519-.708 3.682-3.388 5.5-4.13 2.803-6.858 2.847-19.102.314-5.225-1.081-14.113-2.267-19.75-2.634-10.389-.678-14.212-2.349-5.5-2.404 5.707-.037 4.028-1.392-2.977-2.403-7.773-1.122-7.164-2.949.703-2.107 8.183.877 7.999-.394-.428-2.946-3.327-1.007-6.048-2.209-6.048-2.672 0-1.166 1.658-1.042 7.75.579 6.439 1.715 6.777.719.75-2.209-2.475-1.202-4.5-2.631-4.5-3.174 0-1.043 2.711-.24 7.757 2.297 3.218 1.618 9.243 2.901 9.243 1.969 0-.356-.747-1.472-1.661-2.481-.913-1.01-1.365-2.131-1.004-2.492 1.386-1.385 5.626 1.747 8.115 5.993 3.078 5.253 4.471 5.676 18.675 5.676 11.4 0 11.157.299 7.994-9.864-3.362-10.803-10.607-18.723-21.826-23.859-4.604-2.108-7.486-2.657-15.235-2.9-5.257-.165-11.247.126-13.312.647M49.5 114.162c-7.683 2.877-11.5 7.818-11.5 14.884 0 4.579 2.095 8.877 5.366 11.009 1.174.765 6.859 2.978 12.634 4.918 9.185 3.085 10.543 3.833 10.845 5.971.463 3.277-2.189 5.056-7.536 5.056-4.218 0-5.036-.49-9.143-5.476-1.005-1.22-2.729-1.546-7-1.321-5.069.266-5.701.543-5.996 2.627-.552 3.894 4.127 9.679 10.251 12.675 4.929 2.411 6.423 2.664 13.876 2.349 6.869-.291 8.988-.79 11.933-2.808 4.703-3.225 7.103-7.463 7.103-12.546 0-8.295-4.666-12.495-18.333-16.501-10.679-3.13-13.483-6.146-8.777-9.442 3.918-2.745 8.601-2 12.213 1.943 2.878 3.142 3.739 3.5 8.416 3.5 6.433 0 7.282-1.487 4.325-7.573-3.282-6.755-8.524-9.693-17.981-10.076-4.233-.172-9.046.193-10.696.811m139.291-.232c-4.11 1.328-8.649 4.895-10.306 8.099-3.082 5.96-1.124 15.392 3.775 18.191 1.232.704 6.965 2.855 12.74 4.78 8.589 2.863 10.555 3.887 10.803 5.625.476 3.337-2.364 5.375-7.49 5.375-3.929 0-4.984-.481-7.801-3.557-3.061-3.342-3.583-3.538-8.635-3.25-4.762.272-5.415.573-5.707 2.637-.552 3.898 4.331 10.03 10.144 12.736 6.748 3.142 17.894 3.394 23.476.531 7.629-3.912 11.04-10.302 9.182-17.201-1.447-5.375-6.641-9.451-15.225-11.949-10.916-3.177-12.621-3.975-13.341-6.242-.9-2.836 2.781-5.705 7.32-5.705 2.728 0 4.215.776 6.71 3.5 2.878 3.142 3.739 3.5 8.416 3.5 6.353 0 7.046-1.181 4.315-7.354-3.051-6.898-8.303-9.905-17.971-10.287-4.233-.168-8.915.089-10.405.571M44.218 189.75l.282 11.75 6.852.298c4.932.215 7.52-.139 9.234-1.263 3.253-2.131 3.992-5.724 1.85-8.992-1.305-1.992-1.45-2.929-.585-3.794.632-.632 1.149-2.383 1.149-3.892 0-4.253-3.218-5.857-11.754-5.857h-7.309zm28.214-10.432c-.278.724-.377 6.012-.219 11.75L72.5 201.5h3c2.87 0 3.013-.207 3.305-4.75l.305-4.75H87v5c0 4.889.067 5 3 5h3v-24h-3c-2.889 0-3 .167-3 4.5v4.5h-8v-4.5c0-4.344-.105-4.5-3.031-4.5-1.668 0-3.259.593-3.537 1.318m37.201-.533c-1.089 1.761-7.633 20.482-7.633 21.834 0 2.299 5.748 1.752 6.5-.619.506-1.593 1.513-2 4.951-2 3.475 0 4.418.39 4.839 2 .381 1.456 1.364 2 3.616 2 1.84 0 3.07-.507 3.035-1.25-.033-.687-1.773-5.975-3.868-11.75-3.798-10.47-3.819-10.501-7.348-10.805-1.947-.167-3.788.098-4.092.59m23.799.533c-.278.724-.377 6.012-.219 11.75l.287 10.432 3.25.313 3.25.314.029-4.814.028-4.813 2.722 4.746c2.366 4.127 3.145 4.746 5.971 4.75 1.787.002 3.25-.272 3.25-.61s-.984-2.364-2.186-4.503l-2.185-3.888 2.185-2.037c3.17-2.953 2.954-8.209-.449-10.885-2.042-1.607-4.074-2.073-9.031-2.073-4.37 0-6.557.417-6.902 1.318m30.669 9.932c-2.265 6.188-4.114 11.588-4.109 12s1.342.75 2.973.75c1.941 0 3.334-.69 4.035-2 1.549-2.894 8.595-2.852 9.518.057.509 1.605 1.349 1.989 3.817 1.75 1.741-.169 3.165-.575 3.165-.902s-1.795-5.615-3.99-11.75L175.52 178h-7.302zM191 180.462c0 2.153.455 2.538 3 2.538h3v19h6v-18.873l3.25-.314c2.479-.239 3.25-.788 3.25-2.313 0-1.835-.763-2.024-9.25-2.288l-9.25-.287zM51 185c0 1.737.511 2.074 2.75 1.816 1.637-.188 2.75-.923 2.75-1.816s-1.113-1.628-2.75-1.816c-2.239-.258-2.75.079-2.75 1.816m89 .5c0 1.984.504 2.5 2.441 2.5 3 0 4.138-1.598 2.523-3.544-2.021-2.435-4.964-1.816-4.964 1.044m-27.943 3.849c-1.385 3.644-1.383 3.651.943 3.651 2.146 0 2.654-2.418 1.042-4.966-.742-1.174-1.138-.912-1.985 1.315m58.591-.165c-.937 3.499-.819 3.816 1.419 3.816 1.679 0 1.94-.423 1.388-2.25-1.058-3.503-2.129-4.1-2.807-1.566M51 194.5c0 2.282.366 2.591 2.75 2.316 1.978-.227 2.75-.878 2.75-2.316s-.772-2.089-2.75-2.316c-2.384-.275-2.75.034-2.75 2.316"/><path fill="#1976D2" fill-opacity=".643" fill-rule="evenodd" d="M28.384 1.4C18.649 3.785 8.749 11.663 4.189 20.651-.068 29.043-.14 31.054.187 131.5l.313 96 2.696 5.753c3.771 8.048 11.458 15.851 19.082 19.373L28.5 255.5h199l6.5-3.095c3.575-1.702 8.48-5.077 10.9-7.5 4.556-4.562 10.098-14.766 10.099-18.596.001-1.205.451-2.469 1.001-2.809.655-.405 1-33.697 1-96.618 0-63.745-.336-95.792-1-95.382-.556.344-1-.406-1.001-1.691-.001-3.934-5.483-14.093-10.099-18.714-2.42-2.423-7.325-5.798-10.9-7.5L227.5.5l-97-.177C55.629.186 32.333.432 28.384 1.4m83.824 7.671C55.411 16.448 11.688 63.815 8.352 121.586 4.952 180.457 45.35 232.846 104 245.623c11.216 2.443 37.053 2.456 47.838.023 65.513-14.779 106.769-76.974 93.642-141.169C232.844 42.683 174.576.971 112.208 9.071M.48 128c0 53.075.122 74.788.27 48.25s.148-69.962 0-96.5S.48 74.925.48 128m119.114-35.943c-15.548 2.604-28.295 15.127-31.737 31.176-1.25 5.826-.618 18.578 1.165 23.517l1.174 3.25h7.777c4.277 0 9.167-.278 10.867-.618l3.089-.618-1.64-3.132c-2.129-4.063-2.936-18.14-1.322-23.032 3.631-11.003 16.059-16.497 26.542-11.735 5.101 2.318 10.207 8.106 11.033 12.507.732 3.9 2.703 4.638 12.333 4.614 8.837-.021 10.136-.616 9.474-4.341-.978-5.504-6.042-15.356-10.225-19.895-5.182-5.621-12.285-9.465-20.844-11.279-7.443-1.577-10.339-1.645-17.686-.414m-68.03 22.066c-8.344 1.956-14.364 9.561-13.208 16.685 1.168 7.195 5.766 10.693 18.143 13.802 3.709.932 7.903 2.692 9.322 3.912 2.5 2.151 2.527 2.298.887 4.802-3.198 4.88-11.852 4.439-15.271-.779-1.47-2.245-2.355-2.545-7.493-2.545-3.204 0-6.081.412-6.392.916-.823 1.331 1.235 6.212 3.765 8.931 4.375 4.704 9.569 6.597 18.183 6.626 6.204.021 8.898-.441 12-2.06 5.304-2.767 8.501-7.588 8.496-12.811-.007-8.185-4.846-12.496-17.996-16.034-8.222-2.212-11-3.972-11-6.969 0-3.218 2.119-4.712 6.776-4.776 4.696-.065 7.858 1.449 8.724 4.176.541 1.705 1.512 2.001 6.567 2.001 5.314 0 5.933-.214 5.933-2.05 0-5.853-6.46-12.24-14.02-13.861-5.837-1.252-7.952-1.246-13.416.034m139 0c-7.696 1.804-13.568 8.333-13.56 15.077.008 7.463 5.716 12.2 18.597 15.436 8.18 2.055 12.084 5.216 10.377 8.405-2.629 4.912-11.192 4.87-15.353-.075-2.262-2.688-3.065-2.966-8.56-2.966-5.237 0-6.065.253-6.065 1.852 0 2.711 4.044 8.261 7.925 10.876 9.792 6.599 26.384 5.096 32.378-2.932 2.701-3.618 3.323-10.685 1.288-14.621-2.205-4.262-4.986-5.903-15.708-9.264-10.3-3.229-11.883-4.217-11.883-7.411 0-3.122 2.161-4.614 6.776-4.677 4.696-.065 7.858 1.449 8.724 4.176.541 1.705 1.512 2.001 6.567 2.001 5.314 0 5.933-.214 5.933-2.05 0-5.698-6.511-12.139-14.02-13.869-5.281-1.217-8.082-1.208-13.416.042M141.5 123c.853 1.65 1.776 3 2.051 3s-.198-1.35-1.051-3-1.776-3-2.051-3 .198 1.35 1.051 3m24.998 14.679c-1.582 1.199-3.799 1.394-10.64.936l-8.642-.578-.655 3.488c-.388 2.072-2.249 5.165-4.582 7.618-2.161 2.271-3.711 4.482-3.445 4.912.611.989-2.911 1.655-13.034 2.466-4.4.353-11.347 1.505-15.438 2.56S101.505 161 100.137 161h-2.486l2.425 2.6c3.687 3.955 12.949 8.206 20.51 9.414 17.957 2.868 36.243-5.767 43.694-20.633 2.336-4.661 5.348-15.086 4.581-15.853-.2-.201-1.263.317-2.363 1.151m-42.892 3.169-1.894 2.652 2.338-2.222c1.287-1.222 2.139-2.416 1.894-2.652s-1.296.763-2.338 2.222m11.207 11.835c.721.289 1.584.253 1.916-.079s-.258-.568-1.312-.525c-1.165.048-1.402.285-.604.604M45 190v12h5.435c5.752 0 10.527-1.343 11.779-3.313 1.263-1.985.875-6.368-.677-7.656-1.28-1.062-1.262-1.521.142-3.664 1.283-1.957 1.378-2.947.475-4.928-1.433-3.146-4.847-4.439-11.719-4.439H45zm28 0v12h2.5c2.333 0 2.5-.333 2.5-5v-5h8.89l.305 4.75c.277 4.319.532 4.75 2.805 4.75h2.5v-23H90c-2.226 0-2.534.465-2.807 4.25l-.308 4.25H78v-4.5c0-4.133-.204-4.5-2.5-4.5H73zm33.195-.928c-2.289 6.144-3.918 11.567-3.62 12.05 1.062 1.718 4.22.84 5.833-1.622 1.21-1.846 2.517-2.5 5-2.5s3.79.654 5 2.5c1.558 2.378 4.938 3.368 5.943 1.741.259-.418-1.403-5.706-3.693-11.75-3.968-10.477-4.306-11.005-7.232-11.291-3.05-.298-3.095-.23-7.231 10.872M134 190v12h2.5c2.296 0 2.5-.367 2.5-4.5 0-2.475.431-4.5.958-4.5s2.144 2.025 3.595 4.5c1.966 3.355 3.249 4.5 5.042 4.5 2.918 0 3.027-1.467.428-5.731l-1.97-3.231 2.473-2.473c6.262-6.262.906-12.565-10.675-12.565H134zm34.599-11.16c-1.064 1.721-7.599 20.451-7.599 21.779 0 2.476 4.582 1.594 5.818-1.119.942-2.067 1.84-2.5 5.185-2.5 3.396 0 4.199.402 4.997 2.5.667 1.756 1.702 2.5 3.475 2.5 1.389 0 2.525-.428 2.525-.95 0-.805-5.268-15.752-7.508-21.3-.732-1.814-5.912-2.498-6.893-.91m22.781.612c-.823 2.144.421 3.548 3.141 3.548 2.344 0 2.411.229 2.691 9.25.284 9.123.322 9.25 2.788 9.25 2.464 0 2.504-.131 2.787-9.187.286-9.167.292-9.188 3-9.5 1.932-.223 2.805-.961 3.033-2.563.31-2.184.066-2.25-8.282-2.25-6.597 0-8.731.338-9.158 1.452m-141.209 5.729c.261 1.837.952 2.319 3.329 2.319 2.333 0 3-.444 3-2 0-1.535-.773-2.074-3.329-2.319-2.981-.286-3.294-.077-3 2m89.006.5c.274 2.394.776 2.819 3.323 2.819 2.533 0 3-.389 3-2.5 0-2.101-.53-2.551-3.323-2.819-3.116-.299-3.303-.143-3 2.5m-27.107 2.634c-1.552 4.084-1.36 4.685 1.497 4.685 2.2 0 2.469-.322 1.879-2.25-1.491-4.876-2.242-5.417-3.376-2.435m58.081.681c-1.477 4.239-1.557 4.004 1.349 4.004 2.849 0 3.363-2.438 1.151-5.462-1.257-1.72-1.427-1.621-2.5 1.458M50 194.5c0 2.175.44 2.5 3.393 2.5 3.355 0 4.723-1.324 3.876-3.75-.239-.687-1.973-1.25-3.852-1.25-2.978 0-3.417.321-3.417 2.5"/><path fill="#1976D2" fill-opacity=".391" fill-rule="evenodd" d="M159 1.05c-21.725.363-39.612.726-39.75.805S119 2.928 119 4.061c0 1.879.421 2.007 4.75 1.446 3.068-.397 4.219-.289 3.25.305-.825.506-5.55 1.203-10.5 1.549s-10.35 1.042-12 1.548c-4.11 1.259-2.171 1.28 5 .052 3.3-.564 11.643-1.04 18.54-1.056 58.287-.135 108.379 41.948 118.412 99.48 1.981 11.36 1.981 29.87 0 41.23-7.556 43.329-38.611 79.42-80.378 93.414-11.054 3.703-21.982 5.909-30.412 6.139l-6.162.168 6 .664c5.13.568 4.369.688-5.25.832-10.341.154-11.25.322-11.25 2.075 0 1.697 1.013 1.968 9.25 2.466 19.859 1.202 89.294 1.614 95.716.567 16.128-2.628 27.957-14.254 30.945-30.414 1.513-8.187 1.513-184.865 0-193.052-2.16-11.681-8.781-20.994-18.676-26.268C229.218 1.466 220.678-.047 208 .202c-5.225.103-27.275.484-49 .848m-24.736 5.668c1.52.229 3.77.223 5-.014s-.014-.425-2.764-.418-3.756.202-2.236.432m-35.451 3.965c.721.289 1.584.253 1.916-.079s-.258-.568-1.312-.525c-1.165.048-1.402.285-.604.604m-4 1c.721.289 1.584.253 1.916-.079s-.258-.568-1.312-.525c-1.165.048-1.402.285-.604.604M76 18.5c-1.375.786-2.05 1.429-1.5 1.429s2.125-.643 3.5-1.429 2.05-1.429 1.5-1.429-2.125.643-3.5 1.429m-5.559 3.055c-1.864 1.494-1.852 1.512.309.465 1.237-.6 2.25-1.3 2.25-1.555 0-.765-.519-.544-2.559 1.09m51.309 71.107c.688.278 1.813.278 2.5 0 .688-.277.125-.504-1.25-.504s-1.937.227-1.25.504m11.063.021c.721.289 1.584.253 1.916-.079s-.258-.568-1.312-.525c-1.165.048-1.402.285-.604.604m-30.941 8.067c-1.243 1.586-1.208 1.621.378.378 1.666-1.307 2.195-2.128 1.372-2.128-.207 0-.995.787-1.75 1.75m-6.03 6c-5.445 6.494-8.187 15.355-8.121 26.25.028 4.675.673 10.3 1.434 12.5l1.384 4 9.773-.126c5.375-.069 10.012-.365 10.304-.657s-.249-2.035-1.204-3.874c-2.642-5.092-3.05-16.434-.826-22.964 1.007-2.958 1.85-5.679 1.873-6.046.023-.366.451-1.041.951-1.5.541-.494.577-.223.089.667-.452.825.376.409 1.84-.924 1.463-1.334 2.661-2.641 2.661-2.905 0-.265-.788.232-1.751 1.103-1.095.992-2.312 1.282-3.25.775-.824-.445-4.532-1.123-8.238-1.507-7.493-.777-8.794-1.743-6.204-4.605.964-1.065 1.528-1.937 1.253-1.937s-1.16.787-1.968 1.75m30.971.933c.721.289 1.584.253 1.916-.079s-.258-.568-1.312-.525c-1.165.048-1.402.285-.604.604m-9.306 2.306c-.35.566.051.734.941.393 1.732-.665 2.049-1.382.611-1.382-.518 0-1.216.445-1.552.989m-23.943 1.718c-.542 1.425-.428 1.54.56.56.684-.679.991-1.486.683-1.793-.308-.308-.867.247-1.243 1.233m70.467 2.793c0 .55.436 1.675.969 2.5s.969 1.05.969.5-.436-1.675-.969-2.5-.969-1.05-.969-.5m-18.004 4.961c1.085 2.179 1.973 4.767 1.973 5.75 0 1.599 1.061 1.789 10 1.789 10.888 0 11.004-.078 8.922-6-.698-1.986-.771-1.73-.355 1.25.501 3.587.402 3.744-2.272 3.614-2.358-.115-2.443-.204-.545-.57 2.692-.518 2.909-1.881.5-3.134-2.249-1.169-15.324-3.42-15.991-2.752-.279.279-1.339-.486-2.356-1.701-1.686-2.012-1.675-1.857.124 1.754m-88.758 3.232c.973.254 2.323.237 3-.037s-.119-.481-1.769-.461-2.204.244-1.231.498m4.731.7c0 .216.698.661 1.552.989.89.341 1.291.173.941-.393-.587-.951-2.493-1.406-2.493-.596m-22.82 5.957c-.264 7.097 3.538 10.597 15.38 14.159 10.905 3.279 13.44 4.78 13.44 7.957 0 3.313-3.547 5.534-8.838 5.534-3.742 0-4.866-.518-7.598-3.5-2.873-3.137-3.743-3.5-8.385-3.5-4.619 0-5.179.23-5.179 2.132 0 5.983 8.83 12.969 18.053 14.283 14.377 2.048 26.581-7.903 23-18.754-1.667-5.051-6.025-8.306-14.37-10.734-10.992-3.197-12.65-3.994-14.183-6.815-.781-1.437-1.438-2.245-1.46-1.796-.022.448.404 1.645.946 2.658.894 1.67.476 1.875-4.457 2.184l-5.443.342-.363-4.5-.363-4.5zm111.582-3.643c1.244.239 3.044.23 4-.02s-.062-.446-2.262-.435-2.982.216-1.738.455M67.007 127.8c.983 2.023 1.732 2.264 6.226 2 3.142-.184 5.207-.791 5.363-1.575.14-.701.025-.814-.254-.25-.887 1.788-9.459 1.225-11.037-.725-1.272-1.572-1.302-1.516-.298.55m139.648 1.45c.254.412 2.66.75 5.345.75s5.091-.338 5.345-.75c.255-.412-2.15-.75-5.345-.75s-5.6.338-5.345.75m-28.565 2.6c-.167 4.349 5.59 8.687 15.47 11.659 10.475 3.15 13.44 4.808 13.44 7.514 0 3.525-3.54 5.977-8.632 5.977-3.998 0-5.083-.479-7.933-3.5-2.928-3.105-3.872-3.5-8.368-3.5-4.505 0-5.067.237-5.067 2.132 0 1.173.923 3.625 2.05 5.45 8.014 12.966 34.447 11.563 38.945-2.067 1.413-4.282-.054-10.282-3.247-13.282-3.301-3.101-9.596-5.479-12.64-4.775-1.961.453-2.236.351-1.108-.412 1.245-.843 1.147-1.018-.581-1.031-1.144-.008-4.181-1.079-6.75-2.379-5.19-2.628-6.229-2.554-1.812.129l2.856 1.735h-7.39c-7.35 0-7.395-.016-8.267-3-.762-2.612-.887-2.696-.966-.65m-125.649 2.595c1.068.855 2.38 1.555 2.917 1.555 1.27 0 .703-.462-2.358-1.92-2.357-1.122-2.389-1.102-.559.365M41 134.678c0 .557 1.013 1.869 2.25 2.917l2.25 1.905-1.989-2.5c-1.094-1.375-2.107-2.687-2.25-2.917-.144-.229-.261.039-.261.595m140 1.7c0 .207.787.995 1.75 1.75 1.586 1.243 1.621 1.208.378-.378-1.307-1.666-2.128-2.195-2.128-1.372m-33 3.225c0 2.359-3.576 8.683-6.403 11.321-1.428 1.334-2.597 2.957-2.597 3.607 0 .753-2.82 1.421-7.75 1.836-11.541.972-30.381 4.431-31.785 5.835-1.156 1.156 9.849 7.609 15.937 9.345 7.885 2.249 20.923 1.583 28.845-1.472 11.014-4.248 21.586-17.111 23.437-28.517.58-3.572.474-3.82-1.276-3.011-2.315 1.071-9.547 1.202-14.658.266-2.951-.541-3.75-.372-3.75.79M73.16 192.75c-.158 8.128-.124 8.25 2.285 8.25 2.208 0 2.475-.461 2.75-4.75l.305-4.75h9l.305 4.75c.275 4.289.542 4.75 2.75 4.75 1.891 0 2.428-.51 2.371-2.25-.098-2.978-1.64-11.587-1.801-10.052-.094.901-.886.933-3.195.128-3.748-1.307-11.881-.524-12.977 1.249-.52.843-.944.098-1.216-2.141-.229-1.889-.489.279-.577 4.816m64.998-5.75c0 1.375.227 1.938.504 1.25.278-.687.278-1.812 0-2.5-.277-.687-.504-.125-.504 1.25M45.1 193.25 45 201h7.345c5.846 0 7.683-.373 9-1.829 2.123-2.345 2.104-5.017-.051-7.398-1.43-1.581-1.503-2.238-.45-4.079l1.254-2.194-1.876 2.148c-1.559 1.784-2.88 2.123-7.8 2-4.965-.124-6.027-.471-6.572-2.148-.358-1.1-.695 1.488-.75 5.75m4.151-6.25c.248.923 1.719 1.554 3.826 1.641 3.136.129 3.172.1.426-.34-1.648-.265-3.37-1.003-3.826-1.641-.56-.783-.698-.673-.426.34m114.747 5.25a1359 1359 0 0 1-2.741 7.5c-.3.795.452 1.25 2.069 1.25 1.661 0 2.759-.692 3.174-2 .519-1.635 1.513-2 5.451-2 3.975 0 4.907.349 5.339 2 .353 1.349 1.364 2 3.108 2h2.585l-2.492-6.619c-1.37-3.641-2.505-6.903-2.521-7.25s-.52.21-1.117 1.239c-.882 1.518-1.258 1.612-1.999.5-.631-.949-.826-.447-.633 1.63.243 2.608-.048 3-2.221 3-2.222 0-2.481-.388-2.327-3.489.136-2.735-.036-3.113-.799-1.75-1.341 2.397-3.154 2.197-2.374-.261.349-1.1.44-2 .201-2-.238 0-1.455 2.813-2.703 6.25m-58.802.941c-1.219 3.47-2.212 6.647-2.206 7.059.022 1.626 4.003.632 5.01-1.25.83-1.551 2.094-2 5.629-2 3.717 0 4.655.369 5.081 2 .339 1.294 1.364 2 2.907 2 2.898 0 2.895.109.219-7.23-1.772-4.861-2.34-5.621-3.134-4.202-.879 1.571-1.094 1.509-2.288-.667-1.234-2.249-1.28-2.159-.722 1.429.583 3.747.533 3.823-2.298 3.5-2.416-.275-2.852-.743-2.641-2.83.193-1.902.025-2.147-.699-1.024-.785 1.219-1.099 1.077-1.797-.81-.743-2.009-1.113-1.522-3.061 4.025m28.874.559c-.068 7.085-.013 7.25 2.43 7.25 2.296 0 2.5-.367 2.5-4.5 0-2.475.407-4.5.905-4.5s2.092 2.025 3.542 4.5c2.02 3.447 3.228 4.5 5.159 4.5h2.522l-2.244-3.993-2.245-3.994 2.181-2.321c1.199-1.276 2.166-2.742 2.15-3.256-.017-.515-.495-.139-1.062.835-.584 1.004-1.539 1.457-2.205 1.045-.646-.399-2.756-.578-4.689-.397-6.976.651-7.524.591-8.194-.903-.374-.834-.711 1.746-.75 5.734m64.046 0c-.106 6.622.057 7.25 1.884 7.25s1.99-.628 1.884-7.25c-.064-3.988-.322-6.463-.573-5.5-.252.963-.842 1.75-1.311 1.75s-1.059-.787-1.311-1.75c-.251-.963-.509 1.512-.573 5.5m-117.852-4.032c1.52.229 3.77.223 5-.014s-.014-.425-2.764-.418-3.756.202-2.236.432m-30.082 4.464c.366 3.821 3.05 4.846 6.325 2.414 2.745-2.037.877-4.989-3.426-5.414-3.094-.307-3.206-.191-2.899 3M49 219.378c0 .207.788.995 1.75 1.75 1.586 1.243 1.621 1.208.378-.378-1.307-1.666-2.128-2.195-2.128-1.372M77 238c.825.533 1.95.969 2.5.969s.325-.436-.5-.969-1.95-.969-2.5-.969-.325.436.5.969m7 3c.825.533 1.95.969 2.5.969s.325-.436-.5-.969-1.95-.969-2.5-.969-.325.436.5.969m8.5 3c1.1.473 2.675.859 3.5.859.945 0 .761-.317-.5-.859-1.1-.473-2.675-.859-3.5-.859-.945 0-.761.317.5.859m6.313 1.683c.721.289 1.584.253 1.916-.079s-.258-.568-1.312-.525c-1.165.048-1.402.285-.604.604m3.937.979c.688.278 1.813.278 2.5 0 .688-.277.125-.504-1.25-.504s-1.937.227-1.25.504m5.519 1.031c.973.254 2.323.237 3-.037s-.119-.481-1.769-.461-2.204.244-1.231.498m7.459 1.029c1.775.221 4.925.224 7 .008 2.074-.217.622-.397-3.228-.402-3.85-.004-5.548.173-3.772.394"/></svg>